{
copyright = "\U00A9 Centre for Internet and Society, 2014";
customParameters = (
{
name = glyphOrder;
value = (
    ".notdef",
    space,
    "la-olchiki",
    "at-olchiki",
    "ag-olchiki",
    "ang-olchiki",
    "al-olchiki",
    "laa-olchiki",
    "aak-olchiki",
    "aaj-olchiki",
    "aam-olchiki",
    "aaw-olchiki",
    "li-olchiki",
    "is-olchiki",
    "ih-olchiki",
    "iny-olchiki",
    "ir-olchiki",
    "lu-olchiki",
    "uc-olchiki",
    "ud-olchiki",
    "unn-olchiki",
    "uy-olchiki",
    "le-olchiki",
    "ep-olchiki",
    "edd-olchiki",
    "en-olchiki",
    "err-olchiki",
    "lo-olchiki",
    "ott-olchiki",
    "ob-olchiki",
    "ov-olchiki",
    "oh-olchiki",
    "mu_ttuddag-olchiki",
    "gaahlaa_ttuddag-olchiki",
    "mu_gaahlaa_ttuddag-olchiki",
    "relaa-olchiki",
    "phaarkaa-olchiki"
);
},
{
name = license;
value = "This Font Software is licensed under the SIL Open Font License Version 1.1. This license is available with a FAQ at http://scripts.sil.org/OFL";
},
{
name = licenseURL;
value = "http://scripts.sil.org/OFL";
}
);
date = "2015-11-30 09:29:17 +0000";
designer = "Pooja Saxena";
designerURL = "http://www.poojasaxena.in/";
familyName = "Ol Chiki";
featurePrefixes = (
{
code = "languagesystem DFLT dflt;";
name = Languagesystems;
}
);
fontMaster = (
{
ascender = 750;
capHeight = 750;
descender = "-250";
guideLines = (
{
position = "{216, 636}";
}
);
id = "A591124E-510C-4EE7-8335-8E9FAE8FCE08";
italicAngle = 10;
xHeight = 500;
}
);
glyphs = (
{
glyphname = .notdef;
lastChange = "2014-12-31 10:15:12 +0000";
layers = (
{
background = {
paths = (
{
closed = 1;
nodes = (
"89 0 LINE",
"565 0 LINE",
"565 660 LINE",
"89 660 LINE"
);
},
{
closed = 1;
nodes = (
"197 58 LINE",
"271 190 LINE",
"325 293 LINE",
"329 293 LINE",
"381 190 LINE",
"454 58 LINE"
);
},
{
closed = 1;
nodes = (
"325 387 LINE",
"275 481 LINE",
"209 600 LINE",
"444 600 LINE",
"378 481 LINE",
"329 387 LINE"
);
},
{
closed = 1;
nodes = (
"154 110 LINE",
"154 572 LINE",
"281 340 LINE"
);
},
{
closed = 1;
nodes = (
"498 110 LINE",
"372 340 LINE",
"498 572 LINE"
);
}
);
};
layerId = "A591124E-510C-4EE7-8335-8E9FAE8FCE08";
name = "Regular Italic";
paths = (
{
closed = 1;
nodes = (
"90 0 LINE",
"513 0 LINE",
"513 636 LINE",
"90 636 LINE"
);
},
{
closed = 1;
nodes = (
"449 574 LINE",
"449 61 LINE",
"155 61 LINE",
"155 574 LINE"
);
}
);
width = 603;
}
);
},
{
glyphname = "la-olchiki";
lastChange = "2015-11-23 09:41:46 +0000";
layers = (
{
background = {
paths = (
{
closed = 1;
nodes = (
"78 93 LINE",
"533 426 LINE",
"485 476 LINE",
"25 141 LINE"
);
},
{
closed = 1;
nodes = (
"259 650 OFFCURVE",
"181 614 OFFCURVE",
"123 551 CURVE",
"171 407 LINE",
"44 407 LINE",
"35 338 LINE",
"225 338 LINE",
"257 395 LINE",
"208 536 LINE",
"244 563 OFFCURVE",
"284 576 OFFCURVE",
"329 576 CURVE SMOOTH",
"435 576 OFFCURVE",
"503 478 OFFCURVE",
"481 316 CURVE SMOOTH",
"458 155 OFFCURVE",
"362 59 OFFCURVE",
"246 59 CURVE SMOOTH",
"160 59 OFFCURVE",
"110 100 OFFCURVE",
"94 191 CURVE",
"25 141 LINE",
"56 35 OFFCURVE",
"130 -15 OFFCURVE",
"236 -15 CURVE SMOOTH",
"387 -15 OFFCURVE",
"528 109 OFFCURVE",
"558 316 CURVE SMOOTH",
"587 525 OFFCURVE",
"480 650 OFFCURVE",
"339 650 CURVE SMOOTH"
);
},
{
closed = 1;
nodes = (
"89 89 LINE",
"548 420 LINE",
"502 476 LINE",
"40 141 LINE"
);
},
{
closed = 1;
nodes = (
"279 650 OFFCURVE",
"211 609 OFFCURVE",
"151 552 CURVE",
"196 407 LINE",
"69 407 LINE",
"57 338 LINE",
"242 338 LINE",
"275 395 LINE",
"235 528 LINE",
"272 555 OFFCURVE",
"305 576 OFFCURVE",
"350 576 CURVE SMOOTH",
"432 576 OFFCURVE",
"495 507 OFFCURVE",
"490 369 CURVE SMOOTH",
"486 245 OFFCURVE",
"409 59 OFFCURVE",
"249 59 CURVE SMOOTH",
"173 59 OFFCURVE",
"127 100 OFFCURVE",
"114 191 CURVE",
"40 141 LINE",
"78 35 OFFCURVE",
"153 -15 OFFCURVE",
"239 -15 CURVE SMOOTH",
"463 -15 OFFCURVE",
"559 196 OFFCURVE",
"565 370 CURVE SMOOTH",
"572 550 OFFCURVE",
"481 650 OFFCURVE",
"359 650 CURVE SMOOTH"
);
}
);
};
layerId = "A591124E-510C-4EE7-8335-8E9FAE8FCE08";
name = "Regular Italic";
paths = (
{
closed = 1;
nodes = (
"89 89 LINE",
"548 420 LINE",
"502 476 LINE",
"40 141 LINE"
);
},
{
closed = 1;
nodes = (
"219 650 OFFCURVE",
"135 588 OFFCURVE",
"135 481 CURVE",
"135 432 OFFCURVE",
"154 393 OFFCURVE",
"177 358 CURVE",
"244 393 LINE",
"224 427 OFFCURVE",
"211 454 OFFCURVE",
"211 482 CURVE",
"211 545 OFFCURVE",
"265 576 OFFCURVE",
"335 576 CURVE SMOOTH",
"432 576 OFFCURVE",
"495 520 OFFCURVE",
"490 369 CURVE SMOOTH",
"486 245 OFFCURVE",
"409 59 OFFCURVE",
"249 59 CURVE SMOOTH",
"173 59 OFFCURVE",
"127 100 OFFCURVE",
"114 191 CURVE",
"40 141 LINE",
"78 35 OFFCURVE",
"153 -15 OFFCURVE",
"239 -15 CURVE SMOOTH",
"463 -15 OFFCURVE",
"559 196 OFFCURVE",
"565 370 CURVE SMOOTH",
"572 550 OFFCURVE",
"481 650 OFFCURVE",
"339 650 CURVE SMOOTH"
);
}
);
width = 592;
}
);
rightKerningGroup = at;
unicode = 1C5A;
},
{
glyphname = "at-olchiki";
lastChange = "2015-11-23 09:41:46 +0000";
layers = (
{
background = {
paths = (
{
closed = 1;
nodes = (
"-1 109 OFFCURVE",
"105 -15 OFFCURVE",
"257 -15 CURVE SMOOTH",
"408 -15 OFFCURVE",
"549 109 OFFCURVE",
"579 316 CURVE SMOOTH",
"608 525 OFFCURVE",
"501 650 OFFCURVE",
"350 650 CURVE SMOOTH",
"198 650 OFFCURVE",
"58 525 OFFCURVE",
"29 316 CURVE SMOOTH"
);
},
{
closed = 1;
nodes = (
"479 155 OFFCURVE",
"383 59 OFFCURVE",
"267 59 CURVE SMOOTH",
"150 59 OFFCURVE",
"83 155 OFFCURVE",
"106 316 CURVE SMOOTH",
"128 478 OFFCURVE",
"223 576 OFFCURVE",
"340 576 CURVE SMOOTH",
"456 576 OFFCURVE",
"524 478 OFFCURVE",
"502 316 CURVE SMOOTH"
);
},
{
closed = 1;
nodes = (
"492 650 OFFCURVE",
"587 544 OFFCURVE",
"581 377 CURVE SMOOTH",
"575 200 OFFCURVE",
"476 -15 OFFCURVE",
"262 -15 CURVE",
"137 -15 OFFCURVE",
"44 91 OFFCURVE",
"49 258 CURVE SMOOTH",
"54 435 OFFCURVE",
"153 650 OFFCURVE",
"367 650 CURVE"
);
},
{
closed = 1;
nodes = (
"425 59 OFFCURVE",
"505 241 OFFCURVE",
"505 385 CURVE SMOOTH",
"505 501 OFFCURVE",
"450 576 OFFCURVE",
"361 576 CURVE",
"202 576 OFFCURVE",
"129 394 OFFCURVE",
"125 260 CURVE SMOOTH",
"121 134 OFFCURVE",
"177 59 OFFCURVE",
"266 59 CURVE"
);
}
);
};
layerId = "A591124E-510C-4EE7-8335-8E9FAE8FCE08";
name = "Regular Italic";
paths = (
{
closed = 1;
nodes = (
"450 576 OFFCURVE",
"505 501 OFFCURVE",
"505 385 CURVE SMOOTH",
"505 241 OFFCURVE",
"427 59 OFFCURVE",
"268 59 CURVE",
"179 59 OFFCURVE",
"124 134 OFFCURVE",
"124 250 CURVE SMOOTH",
"124 394 OFFCURVE",
"202 576 OFFCURVE",
"361 576 CURVE"
);
},
{
closed = 1;
nodes = (
"476 -15 OFFCURVE",
"574 196 OFFCURVE",
"580 377 CURVE SMOOTH",
"586 544 OFFCURVE",
"495 650 OFFCURVE",
"367 650 CURVE",
"153 650 OFFCURVE",
"55 439 OFFCURVE",
"49 258 CURVE SMOOTH",
"43 91 OFFCURVE",
"134 -15 OFFCURVE",
"262 -15 CURVE"
);
}
);
width = 605;
}
);
rightKerningGroup = at;
unicode = 1C5B;
},
{
color = 0;
glyphname = "ag-olchiki";
lastChange = "2015-11-23 09:47:37 +0000";
layers = (
{
background = {
paths = (
{
closed = 1;
nodes = (
"1005 239 OFFCURVE",
"979 264 OFFCURVE",
"986 307 CURVE SMOOTH",
"994 350 OFFCURVE",
"1029 375 OFFCURVE",
"1093 375 CURVE SMOOTH",
"1128 375 OFFCURVE",
"1175 367 OFFCURVE",
"1231 354 CURVE",
"1261 428 LINE",
"1190 444 OFFCURVE",
"1156 452 OFFCURVE",
"1095 452 CURVE SMOOTH",
"974 452 OFFCURVE",
"916 370 OFFCURVE",
"905 307 CURVE SMOOTH",
"894 244 OFFCURVE",
"921 163 OFFCURVE",
"1042 163 CURVE SMOOTH",
"1076 163 OFFCURVE",
"1095 166 OFFCURVE",
"1131 171 CURVE",
"1080 99 OFFCURVE",
"1006 59 OFFCURVE",
"924 59 CURVE SMOOTH",
"797 59 OFFCURVE",
"733 155 OFFCURVE",
"762 316 CURVE SMOOTH",
"790 478 OFFCURVE",
"899 576 OFFCURVE",
"1026 576 CURVE SMOOTH",
"1088 576 OFFCURVE",
"1131 550 OFFCURVE",
"1166 512 CURVE",
"1226 569 LINE",
"1184 621 OFFCURVE",
"1117 650 OFFCURVE",
"1039 650 CURVE SMOOTH",
"877 650 OFFCURVE",
"722 525 OFFCURVE",
"685 316 CURVE SMOOTH",
"648 109 OFFCURVE",
"745 -15 OFFCURVE",
"911 -15 CURVE SMOOTH",
"1053 -15 OFFCURVE",
"1184 78 OFFCURVE",
"1239 244 CURVE",
"1224 258 LINE",
"1147 244 OFFCURVE",
"1105 239 OFFCURVE",
"1069 239 CURVE SMOOTH"
);
},
{
closed = 1;
nodes = (
"462 576 OFFCURVE",
"517 501 OFFCURVE",
"517 385 CURVE SMOOTH",
"517 241 OFFCURVE",
"439 59 OFFCURVE",
"280 59 CURVE",
"191 59 OFFCURVE",
"136 134 OFFCURVE",
"136 250 CURVE SMOOTH",
"136 394 OFFCURVE",
"214 576 OFFCURVE",
"373 576 CURVE"
);
},
{
closed = 1;
nodes = (
"488 -15 OFFCURVE",
"586 196 OFFCURVE",
"592 377 CURVE SMOOTH",
"598 544 OFFCURVE",
"507 650 OFFCURVE",
"379 650 CURVE",
"165 650 OFFCURVE",
"67 439 OFFCURVE",
"61 258 CURVE SMOOTH",
"55 91 OFFCURVE",
"146 -15 OFFCURVE",
"274 -15 CURVE"
);
}
);
};
guideLines = (
{
position = "{335, 237}";
},
{
position = "{335, 270}";
},
{
position = "{335, 202}";
},
{
position = "{-88, 316}";
}
);
layerId = "A591124E-510C-4EE7-8335-8E9FAE8FCE08";
name = "Regular Italic";
paths = (
{
closed = 1;
nodes = (
"349 229 OFFCURVE",
"320 253 OFFCURVE",
"320 288 CURVE SMOOTH",
"320 360 OFFCURVE",
"415 392 OFFCURVE",
"581 414 CURVE",
"552 481 LINE",
"392 464 OFFCURVE",
"242 430 OFFCURVE",
"242 280 CURVE SMOOTH",
"242 225 OFFCURVE",
"281 156 OFFCURVE",
"372 156 CURVE SMOOTH",
"406 156 OFFCURVE",
"423 158 OFFCURVE",
"459 163 CURVE",
"408 91 OFFCURVE",
"346 59 OFFCURVE",
"294 59 CURVE SMOOTH",
"182 59 OFFCURVE",
"135 139 OFFCURVE",
"135 250 CURVE SMOOTH",
"135 402 OFFCURVE",
"208 576 OFFCURVE",
"376 576 CURVE SMOOTH",
"415 576 OFFCURVE",
"446 571 OFFCURVE",
"472 562 CURVE",
"501 633 LINE",
"468 645 OFFCURVE",
"429 650 OFFCURVE",
"389 650 CURVE SMOOTH",
"163 650 OFFCURVE",
"62 442 OFFCURVE",
"62 248 CURVE SMOOTH",
"62 94 OFFCURVE",
"141 -15 OFFCURVE",
"281 -15 CURVE SMOOTH",
"403 -15 OFFCURVE",
"514 68 OFFCURVE",
"569 234 CURVE",
"554 248 LINE",
"477 234 OFFCURVE",
"435 229 OFFCURVE",
"399 229 CURVE SMOOTH"
);
}
);
width = 657;
}
);
unicode = 1C5C;
},
{
glyphname = "ang-olchiki";
lastChange = "2015-11-30 06:36:17 +0000";
layers = (
{
background = {
paths = (
{
closed = 1;
nodes = (
"543 109 OFFCURVE",
"676 -15 OFFCURVE",
"838 -15 CURVE SMOOTH",
"999 -15 OFFCURVE",
"1133 109 OFFCURVE",
"1133 316 CURVE SMOOTH",
"1133 525 OFFCURVE",
"999 650 OFFCURVE",
"838 650 CURVE SMOOTH",
"676 650 OFFCURVE",
"543 525 OFFCURVE",
"543 316 CURVE SMOOTH"
);
},
{
closed = 1;
nodes = (
"1056 155 OFFCURVE",
"964 59 OFFCURVE",
"838 59 CURVE SMOOTH",
"711 59 OFFCURVE",
"620 155 OFFCURVE",
"620 316 CURVE SMOOTH",
"620 478 OFFCURVE",
"711 576 OFFCURVE",
"838 576 CURVE SMOOTH",
"964 576 OFFCURVE",
"1056 478 OFFCURVE",
"1056 316 CURVE SMOOTH"
);
},
{
closed = 1;
nodes = (
"1003 77 LINE",
"1074 108 LINE",
"845 318 LINE",
"1073 528 LINE",
"1003 559 LINE",
"765 342 LINE",
"765 295 LINE"
);
},
{
closed = 1;
nodes = (
"845 318 LINE",
"1110 528 LINE",
"1069 607 OFFCURVE",
"992 650 OFFCURVE",
"897 650 CURVE SMOOTH",
"767 650 OFFCURVE",
"640 569 OFFCURVE",
"576 428 CURVE",
"645 402 LINE",
"690 512 OFFCURVE",
"781 576 OFFCURVE",
"884 576 CURVE SMOOTH",
"935 576 OFFCURVE",
"978 560 OFFCURVE",
"1008 530 CURVE",
"769 342 LINE",
"761 295 LINE",
"935 105 LINE",
"893 75 OFFCURVE",
"844 59 OFFCURVE",
"793 59 CURVE SMOOTH",
"690 59 OFFCURVE",
"623 123 OFFCURVE",
"616 233 CURVE",
"539 207 LINE",
"553 66 OFFCURVE",
"650 -15 OFFCURVE",
"780 -15 CURVE SMOOTH",
"875 -15 OFFCURVE",
"968 28 OFFCURVE",
"1037 107 CURVE"
);
},
{
closed = 0;
nodes = (
"645 402 LINE"
);
},
{
closed = 0;
nodes = (
"616 233 LINE"
);
},
{
closed = 1;
nodes = (
"936 281 LINE",
"1118 281 LINE",
"1130 353 LINE",
"948 353 LINE"
);
},
{
closed = 1;
nodes = (
"210 -12 CURVE SMOOTH",
"344 -12 OFFCURVE",
"443 65 OFFCURVE",
"443 187 CURVE SMOOTH",
"443 253 OFFCURVE",
"401 303 OFFCURVE",
"331 326 CURVE",
"331 330 LINE",
"430 358 OFFCURVE",
"480 423 OFFCURVE",
"480 504 CURVE SMOOTH",
"480 592 OFFCURVE",
"420 650 OFFCURVE",
"313 650 CURVE SMOOTH",
"252 650 OFFCURVE",
"191 628 OFFCURVE",
"137 587 CURVE",
"176 536 LINE",
"214 567 OFFCURVE",
"262 587 OFFCURVE",
"301 587 CURVE SMOOTH",
"369 587 OFFCURVE",
"402 547 OFFCURVE",
"402 491 CURVE SMOOTH",
"402 430 OFFCURVE",
"351 359 OFFCURVE",
"193 359 CURVE",
"181 301 LINE",
"316 301 OFFCURVE",
"366 252 OFFCURVE",
"366 184 CURVE SMOOTH",
"366 108 OFFCURVE",
"302 52 OFFCURVE",
"211 52 CURVE SMOOTH",
"145 52 OFFCURVE",
"96 93 OFFCURVE",
"65 138 CURVE",
"14 98 LINE",
"54 38 OFFCURVE",
"123 -12 OFFCURVE"
);
}
);
};
guideLines = (
{
position = "{167, 317}";
},
{
position = "{-225, 437}";
},
{
position = "{-225, 197}";
}
);
layerId = "A591124E-510C-4EE7-8335-8E9FAE8FCE08";
name = "Regular Italic";
paths = (
{
closed = 1;
nodes = (
"444 261 OFFCURVE",
"382 310 OFFCURVE",
"285 326 CURVE",
"285 330 LINE",
"383 345 OFFCURVE",
"480 408 OFFCURVE",
"480 502 CURVE",
"480 581 OFFCURVE",
"432 650 OFFCURVE",
"309 650 CURVE SMOOTH",
"219 650 OFFCURVE",
"143 609 OFFCURVE",
"80 546 CURVE",
"130 493 LINE",
"176 539 OFFCURVE",
"232 578 OFFCURVE",
"304 578 CURVE SMOOTH",
"361 578 OFFCURVE",
"400 551 OFFCURVE",
"400 494 CURVE",
"400 421 OFFCURVE",
"301 371 OFFCURVE",
"170 364 CURVE",
"158 294 LINE",
"280 296 OFFCURVE",
"364 259 OFFCURVE",
"364 178 CURVE",
"364 108 OFFCURVE",
"302 65 OFFCURVE",
"222 65 CURVE SMOOTH",
"145 65 OFFCURVE",
"97 115 OFFCURVE",
"59 161 CURVE",
"0 107 LINE",
"51 46 OFFCURVE",
"114 -12 OFFCURVE",
"219 -12 CURVE SMOOTH",
"370 -12 OFFCURVE",
"444 91 OFFCURVE",
"444 171 CURVE"
);
},
{
closed = 1;
nodes = (
"436 295 LINE",
"608 295 LINE",
"620 360 LINE",
"448 360 LINE"
);
}
);
width = 601;
}
);
rightKerningGroup = at;
unicode = 1C5D;
},
{
glyphname = "al-olchiki";
lastChange = "2015-11-23 09:41:46 +0000";
layers = (
{
background = {
paths = (
{
closed = 1;
nodes = (
"102 0 LINE",
"214 636 LINE",
"142 636 LINE",
"30 0 LINE"
);
},
{
closed = 1;
nodes = (
"443 338 OFFCURVE",
"403 210 OFFCURVE",
"265 194 CURVE",
"151 298 LINE",
"89 257 LINE",
"237 115 LINE",
"445 133 OFFCURVE",
"515 287 OFFCURVE",
"519 408 CURVE SMOOTH",
"524 530 OFFCURVE",
"439 627 OFFCURVE",
"319 639 CURVE",
"132 499 LINE",
"181 450 LINE",
"332 562 LINE",
"397 551 OFFCURVE",
"448 485 OFFCURVE",
"445 407 CURVE SMOOTH"
);
}
);
};
layerId = "A591124E-510C-4EE7-8335-8E9FAE8FCE08";
name = "Regular Italic";
paths = (
{
closed = 1;
nodes = (
"102 0 LINE",
"214 636 LINE",
"142 636 LINE",
"30 0 LINE"
);
},
{
closed = 1;
nodes = (
"445 318 OFFCURVE",
"366 192 OFFCURVE",
"240 192 CURVE",
"191 192 OFFCURVE",
"159 222 OFFCURVE",
"128 268 CURVE",
"93 238 LINE",
"140 165 OFFCURVE",
"179 125 OFFCURVE",
"252 125 CURVE",
"420 125 OFFCURVE",
"519 293 OFFCURVE",
"519 442 CURVE SMOOTH",
"519 550 OFFCURVE",
"462 639 OFFCURVE",
"369 639 CURVE",
"257 639 OFFCURVE",
"174 524 OFFCURVE",
"126 429 CURVE",
"175 423 LINE",
"225 514 OFFCURVE",
"279 569 OFFCURVE",
"349 569 CURVE",
"417 569 OFFCURVE",
"445 505 OFFCURVE",
"445 435 CURVE SMOOTH"
);
}
);
width = 525;
}
);
unicode = 1C5E;
},
{
glyphname = "laa-olchiki";
lastChange = "2015-11-23 11:58:20 +0000";
layers = (
{
background = {
paths = (
{
closed = 1;
nodes = (
"267 650 OFFCURVE",
"197 614 OFFCURVE",
"136 551 CURVE",
"182 407 LINE",
"53 407 LINE",
"41 338 LINE",
"231 338 LINE",
"265 395 LINE",
"222 536 LINE",
"258 563 OFFCURVE",
"289 576 OFFCURVE",
"334 576 CURVE SMOOTH",
"430 576 OFFCURVE",
"486 478 OFFCURVE",
"458 316 CURVE SMOOTH",
"429 155 OFFCURVE",
"338 59 OFFCURVE",
"232 59 CURVE SMOOTH",
"146 59 OFFCURVE",
"108 100 OFFCURVE",
"95 191 CURVE",
"24 141 LINE",
"51 35 OFFCURVE",
"113 -15 OFFCURVE",
"219 -15 CURVE SMOOTH",
"367 -15 OFFCURVE",
"496 109 OFFCURVE",
"533 316 CURVE SMOOTH",
"570 525 OFFCURVE",
"485 650 OFFCURVE",
"347 650 CURVE SMOOTH"
);
},
{
closed = 1;
nodes = (
"605 525 OFFCURVE",
"631 467 OFFCURVE",
"628 369 CURVE",
"628 229 OFFCURVE",
"567 99 OFFCURVE",
"515 21 CURVE",
"577 -15 LINE",
"632 67 OFFCURVE",
"702 228 OFFCURVE",
"702 370 CURVE",
"706 470 OFFCURVE",
"680 545 OFFCURVE",
"631 593 CURVE SMOOTH",
"622 601 OFFCURVE",
"613 609 OFFCURVE",
"603 615 CURVE",
"560 554 LINE"
);
}
);
};
layerId = "A591124E-510C-4EE7-8335-8E9FAE8FCE08";
name = "Regular Italic";
paths = (
{
closed = 1;
nodes = (
"64 89 LINE",
"659 590 LINE",
"613 646 LINE",
"15 141 LINE"
);
},
{
closed = 1;
nodes = (
"194 650 OFFCURVE",
"110 588 OFFCURVE",
"110 481 CURVE",
"110 432 OFFCURVE",
"129 393 OFFCURVE",
"152 358 CURVE",
"219 393 LINE",
"199 427 OFFCURVE",
"186 454 OFFCURVE",
"186 482 CURVE",
"186 545 OFFCURVE",
"240 576 OFFCURVE",
"310 576 CURVE SMOOTH",
"407 576 OFFCURVE",
"470 520 OFFCURVE",
"465 369 CURVE SMOOTH",
"461 245 OFFCURVE",
"384 59 OFFCURVE",
"224 59 CURVE SMOOTH",
"148 59 OFFCURVE",
"102 100 OFFCURVE",
"89 191 CURVE",
"15 141 LINE",
"53 35 OFFCURVE",
"128 -15 OFFCURVE",
"214 -15 CURVE SMOOTH",
"438 -15 OFFCURVE",
"534 196 OFFCURVE",
"540 370 CURVE SMOOTH",
"547 550 OFFCURVE",
"456 650 OFFCURVE",
"314 650 CURVE SMOOTH"
);
},
{
closed = 1;
nodes = (
"611 556 OFFCURVE",
"632 468 OFFCURVE",
"629 370 CURVE",
"629 230 OFFCURVE",
"567 100 OFFCURVE",
"515 22 CURVE",
"579 -14 LINE",
"634 68 OFFCURVE",
"702 229 OFFCURVE",
"702 371 CURVE",
"707 502 OFFCURVE",
"671 602 OFFCURVE",
"613 646 CURVE",
"566 585 LINE"
);
}
);
width = 740;
}
);
rightKerningGroup = at;
unicode = 1C5F;
},
{
glyphname = "aak-olchiki";
lastChange = "2015-11-23 09:41:46 +0000";
layers = (
{
background = {
paths = (
{
closed = 1;
nodes = (
"537 147 LINE",
"609 152 LINE",
"695 639 LINE",
"623 639 LINE"
);
},
{
closed = 1;
nodes = (
"887 171 OFFCURVE",
"814 91 OFFCURVE",
"719 79 CURVE",
"614 180 LINE",
"537 147 LINE",
"686 0 LINE",
"830 13 OFFCURVE",
"950 118 OFFCURVE",
"976 261 CURVE",
"1001 404 OFFCURVE",
"917 509 OFFCURVE",
"778 522 CURVE",
"592 382 LINE",
"643 341 LINE",
"778 443 LINE",
"874 431 OFFCURVE",
"919 351 OFFCURVE",
"903 261 CURVE"
);
},
{
closed = 1;
nodes = (
"125 126 LINE",
"214 636 LINE",
"142 636 LINE",
"53 126 LINE"
);
},
{
closed = 1;
nodes = (
"422 189 OFFCURVE",
"343 63 OFFCURVE",
"217 63 CURVE",
"168 63 OFFCURVE",
"136 93 OFFCURVE",
"105 139 CURVE",
"70 109 LINE",
"117 36 OFFCURVE",
"156 -4 OFFCURVE",
"229 -4 CURVE",
"397 -4 OFFCURVE",
"496 164 OFFCURVE",
"496 313 CURVE SMOOTH",
"496 421 OFFCURVE",
"439 510 OFFCURVE",
"346 510 CURVE",
"234 510 OFFCURVE",
"151 395 OFFCURVE",
"103 300 CURVE",
"152 294 LINE",
"202 385 OFFCURVE",
"256 440 OFFCURVE",
"326 440 CURVE",
"394 440 OFFCURVE",
"422 376 OFFCURVE",
"422 306 CURVE SMOOTH"
);
}
);
};
layerId = "A591124E-510C-4EE7-8335-8E9FAE8FCE08";
name = "Regular Italic";
paths = (
{
closed = 1;
nodes = (
"119 89 LINE",
"214 636 LINE",
"142 636 LINE",
"50 106 LINE"
);
},
{
closed = 1;
nodes = (
"422 189 OFFCURVE",
"343 69 OFFCURVE",
"232 69 CURVE",
"168 69 OFFCURVE",
"132 100 OFFCURVE",
"103 146 CURVE",
"50 106 LINE",
"97 33 OFFCURVE",
"161 0 OFFCURVE",
"229 0 CURVE",
"397 0 OFFCURVE",
"496 164 OFFCURVE",
"496 313 CURVE SMOOTH",
"496 421 OFFCURVE",
"439 510 OFFCURVE",
"346 510 CURVE",
"234 510 OFFCURVE",
"151 395 OFFCURVE",
"103 300 CURVE",
"152 294 LINE",
"202 385 OFFCURVE",
"256 440 OFFCURVE",
"326 440 CURVE",
"394 440 OFFCURVE",
"422 376 OFFCURVE",
"422 306 CURVE SMOOTH"
);
}
);
width = 521;
}
);
rightKerningGroup = aak;
unicode = 1C60;
},
{
glyphname = "aaj-olchiki";
lastChange = "2015-11-23 08:05:10 +0000";
layers = (
{
background = {
paths = (
{
closed = 1;
nodes = (
"67 0 LINE",
"145 0 LINE",
"145 636 LINE",
"67 636 LINE"
);
},
{
closed = 1;
nodes = (
"315 571 LINE",
"426 555 OFFCURVE",
"503 464 OFFCURVE",
"503 318 CURVE SMOOTH",
"503 163 OFFCURVE",
"427 101 OFFCURVE",
"359 81 CURVE",
"139 335 LINE",
"81 287 LINE",
"328 -3 LINE",
"452 -3 OFFCURVE",
"586 111 OFFCURVE",
"586 318 CURVE SMOOTH",
"586 505 OFFCURVE",
"474 623 OFFCURVE",
"341 646 CURVE"
);
},
{
closed = 1;
nodes = (
"139 0 LINE",
"139 636 LINE",
"67 636 LINE",
"67 0 LINE"
);
},
{
closed = 1;
nodes = (
"315 571 LINE",
"426 542 OFFCURVE",
"503 471 OFFCURVE",
"503 320 CURVE SMOOTH",
"503 170 OFFCURVE",
"425 98 OFFCURVE",
"352 78 CURVE",
"139 326 LINE",
"81 289 LINE",
"332 -1 LINE",
"454 12 OFFCURVE",
"576 117 OFFCURVE",
"576 320 CURVE SMOOTH",
"576 507 OFFCURVE",
"474 602 OFFCURVE",
"341 639 CURVE"
);
}
);
};
guideLines = (
{
angle = 90;
position = "{452, 272}";
},
{
angle = 90;
position = "{415, 168}";
}
);
layerId = "A591124E-510C-4EE7-8335-8E9FAE8FCE08";
name = "Regular Italic";
width = 601;
}
);
leftKerningGroup = "at-olchiki";
rightKerningGroup = at;
unicode = 1C61;
},
{
glyphname = "aam-olchiki";
lastChange = "2015-11-23 11:34:49 +0000";
layers = (
{
background = {
paths = (
{
closed = 1;
nodes = (
"201 602 OFFCURVE",
"80 517 OFFCURVE",
"45 320 CURVE SMOOTH",
"9 117 OFFCURVE",
"117 12 OFFCURVE",
"247 -1 CURVE",
"389 151 LINE",
"510 289 LINE",
"468 328 LINE",
"231 78 LINE",
"161 98 OFFCURVE",
"96 170 OFFCURVE",
"122 320 CURVE SMOOTH",
"150 477 OFFCURVE",
"236 536 OFFCURVE",
"353 568 CURVE",
"340 639 LINE"
);
},
{
closed = 1;
nodes = (
"519 636 LINE",
"407 0 LINE",
"482 0 LINE",
"594 636 LINE"
);
},
{
closed = 1;
nodes = (
"1142 576 OFFCURVE",
"1197 501 OFFCURVE",
"1197 385 CURVE SMOOTH",
"1197 241 OFFCURVE",
"1119 59 OFFCURVE",
"960 59 CURVE",
"871 59 OFFCURVE",
"816 134 OFFCURVE",
"816 250 CURVE SMOOTH",
"816 394 OFFCURVE",
"894 576 OFFCURVE",
"1053 576 CURVE"
);
},
{
closed = 1;
nodes = (
"1168 -15 OFFCURVE",
"1266 196 OFFCURVE",
"1272 377 CURVE SMOOTH",
"1278 544 OFFCURVE",
"1187 650 OFFCURVE",
"1059 650 CURVE",
"845 650 OFFCURVE",
"747 439 OFFCURVE",
"741 258 CURVE SMOOTH",
"735 91 OFFCURVE",
"826 -15 OFFCURVE",
"954 -15 CURVE"
);
},
{
closed = 1;
nodes = (
"329 636 LINE",
"117 574 OFFCURVE",
"38 410 OFFCURVE",
"38 224 CURVE SMOOTH",
"38 87 OFFCURVE",
"110 -3 OFFCURVE",
"208 -3 CURVE",
"355 -3 OFFCURVE",
"475 174 OFFCURVE",
"523 346 CURVE",
"471 358 LINE",
"432 230 OFFCURVE",
"352 71 OFFCURVE",
"214 71 CURVE",
"147 71 OFFCURVE",
"113 135 OFFCURVE",
"113 227 CURVE SMOOTH",
"113 383 OFFCURVE",
"168 516 OFFCURVE",
"351 566 CURVE"
);
},
{
closed = 1;
nodes = (
"519 636 LINE",
"407 0 LINE",
"482 0 LINE",
"594 636 LINE"
);
}
);
};
layerId = "A591124E-510C-4EE7-8335-8E9FAE8FCE08";
name = "Regular Italic";
paths = (
{
closed = 1;
nodes = (
"520 636 LINE",
"473 371 LINE",
"450 245 OFFCURVE",
"353 71 OFFCURVE",
"218 71 CURVE SMOOTH",
"151 71 OFFCURVE",
"113 135 OFFCURVE",
"113 227 CURVE SMOOTH",
"113 383 OFFCURVE",
"168 516 OFFCURVE",
"351 566 CURVE",
"329 636 LINE",
"117 574 OFFCURVE",
"38 410 OFFCURVE",
"38 224 CURVE SMOOTH",
"38 87 OFFCURVE",
"110 -3 OFFCURVE",
"208 -3 CURVE SMOOTH",
"295.858 -3 OFFCURVE",
"374.071 60.2264 OFFCURVE",
"433.032 147.823 CURVE",
"437 148 LINE",
"418 0 LINE",
"482 0 LINE",
"595 636 LINE"
);
}
);
width = 601;
}
);
unicode = 1C62;
},
{
glyphname = "aaw-olchiki";
lastChange = "2015-11-23 10:24:32 +0000";
layers = (
{
background = {
paths = (
{
closed = 1;
nodes = (
"494 607 LINE",
"519 547 OFFCURVE",
"542 462 OFFCURVE",
"518 323 CURVE SMOOTH",
"493 182 OFFCURVE",
"408 54 OFFCURVE",
"270 59 CURVE",
"171 59 OFFCURVE",
"118 122 OFFCURVE",
"116 221 CURVE",
"135 217 OFFCURVE",
"158 214 OFFCURVE",
"180 214 CURVE SMOOTH",
"306 214 OFFCURVE",
"389 318 OFFCURVE",
"406 417 CURVE SMOOTH",
"427 537 OFFCURVE",
"403 642 OFFCURVE",
"274 642 CURVE SMOOTH",
"212 642 OFFCURVE",
"134 602 OFFCURVE",
"86 514 CURVE",
"145 481 LINE",
"180 536 OFFCURVE",
"216 568 OFFCURVE",
"264 568 CURVE SMOOTH",
"326 568 OFFCURVE",
"351 524 OFFCURVE",
"332 418 CURVE SMOOTH",
"322 359 OFFCURVE",
"273 287 OFFCURVE",
"191 287 CURVE SMOOTH",
"132 287 OFFCURVE",
"106 302 OFFCURVE",
"66 312 CURVE",
"47 297 LINE",
"20 101 OFFCURVE",
"102 -15 OFFCURVE",
"259 -15 CURVE SMOOTH",
"437 -15 OFFCURVE",
"557 124 OFFCURVE",
"593 329 CURVE SMOOTH",
"615 457 OFFCURVE",
"601 554 OFFCURVE",
"569 640 CURVE"
);
}
);
};
layerId = "A591124E-510C-4EE7-8335-8E9FAE8FCE08";
name = "Regular Italic";
paths = (
{
closed = 1;
nodes = (
"499 609 LINE",
"516 566 OFFCURVE",
"528 509 OFFCURVE",
"528 431 CURVE SMOOTH",
"528 292 OFFCURVE",
"461 53 OFFCURVE",
"264 60 CURVE",
"165 60 OFFCURVE",
"119 124 OFFCURVE",
"117 223 CURVE",
"136 219 OFFCURVE",
"158 215 OFFCURVE",
"180 215 CURVE SMOOTH",
"348 215 OFFCURVE",
"413 364 OFFCURVE",
"413 473 CURVE SMOOTH",
"413 566 OFFCURVE",
"376 642 OFFCURVE",
"274 642 CURVE SMOOTH",
"202 642 OFFCURVE",
"133 604 OFFCURVE",
"95 516 CURVE",
"155 481 LINE",
"185 536 OFFCURVE",
"216 568 OFFCURVE",
"264 568 CURVE SMOOTH",
"312 568 OFFCURVE",
"338 541 OFFCURVE",
"338 479 CURVE SMOOTH",
"338 400 OFFCURVE",
"301 289 OFFCURVE",
"186 289 CURVE SMOOTH",
"127 289 OFFCURVE",
"106 302 OFFCURVE",
"66 312 CURVE",
"47 297 LINE",
"20 121 OFFCURVE",
"101 -15 OFFCURVE",
"258 -15 CURVE SMOOTH",
"529 -15 OFFCURVE",
"602 261 OFFCURVE",
"602 443 CURVE SMOOTH",
"602 507 OFFCURVE",
"592 579 OFFCURVE",
"570 637 CURVE"
);
}
);
width = 625;
}
);
rightKerningGroup = at;
unicode = 1C63;
},
{
glyphname = "li-olchiki";
lastChange = "2015-11-23 10:24:32 +0000";
layers = (
{
background = {
paths = (
{
closed = 1;
nodes = (
"505 506 LINE",
"443 506 LINE",
"404 347 LINE",
"344 0 LINE",
"416 0 LINE"
);
},
{
closed = 1;
nodes = (
"514 607 OFFCURVE",
"420 650 OFFCURVE",
"316 650 CURVE SMOOTH",
"234 650 OFFCURVE",
"159 618 OFFCURVE",
"80 561 CURVE",
"125 501 LINE",
"177 535 OFFCURVE",
"230 577 OFFCURVE",
"315 577 CURVE SMOOTH",
"379 577 OFFCURVE",
"421 560 OFFCURVE",
"452 537 CURVE",
"15 41 LINE",
"69 -5 LINE",
"387 360 LINE",
"465 454 LINE",
"565 541 LINE"
);
}
);
};
guideLines = (
{
angle = 90;
position = "{45, 173}";
}
);
layerId = "A591124E-510C-4EE7-8335-8E9FAE8FCE08";
name = "Regular Italic";
paths = (
{
closed = 1;
nodes = (
"534 519 LINE",
"472 519 LINE",
"432 333 LINE",
"366 -14 LINE",
"438 -14 LINE"
);
},
{
closed = 1;
nodes = (
"484 588 OFFCURVE",
"406 636 OFFCURVE",
"311 636 CURVE SMOOTH",
"223 636 OFFCURVE",
"147 609 OFFCURVE",
"71 536 CURVE",
"118 481 LINE",
"174 528 OFFCURVE",
"215 563 OFFCURVE",
"312 563 CURVE SMOOTH",
"358 563 OFFCURVE",
"390 550 OFFCURVE",
"422 529 CURVE",
"19 28 LINE",
"77 -14 LINE",
"366 346 LINE",
"474 483 LINE",
"534 519 LINE"
);
}
);
width = 547;
}
);
rightKerningGroup = li;
unicode = 1C64;
},
{
glyphname = "is-olchiki";
lastChange = "2015-11-23 10:24:32 +0000";
layers = (
{
background = {
paths = (
{
closed = 1;
nodes = (
"687 130 LINE",
"749 130 LINE",
"787 289 LINE",
"848 636 LINE",
"776 636 LINE"
);
},
{
closed = 1;
nodes = (
"674 26 OFFCURVE",
"759 -14 OFFCURVE",
"853 -14 CURVE SMOOTH",
"945 -14 OFFCURVE",
"1048 29 OFFCURVE",
"1127 106 CURVE",
"1080 156 LINE",
"1027 112 OFFCURVE",
"959 60 OFFCURVE",
"866 60 CURVE SMOOTH",
"805 60 OFFCURVE",
"764 80 OFFCURVE",
"732 107 CURVE",
"1200 599 LINE",
"1151 641 LINE",
"802 276 LINE",
"725 186 LINE",
"624 95 LINE"
);
},
{
closed = 1;
nodes = (
"87 130 LINE",
"149 130 LINE",
"187 289 LINE",
"248 636 LINE",
"176 636 LINE"
);
},
{
closed = 1;
nodes = (
"84 34 OFFCURVE",
"162 -14 OFFCURVE",
"267 -14 CURVE SMOOTH",
"355 -14 OFFCURVE",
"451 27 OFFCURVE",
"527 100 CURVE",
"480 156 LINE",
"424 109 OFFCURVE",
"363 59 OFFCURVE",
"266 59 CURVE SMOOTH",
"205 59 OFFCURVE",
"171 75 OFFCURVE",
"139 102 CURVE",
"605 591 LINE",
"551 641 LINE",
"202 276 LINE",
"125 186 LINE",
"34 103 LINE"
);
}
);
};
layerId = "A591124E-510C-4EE7-8335-8E9FAE8FCE08";
name = "Regular Italic";
paths = (
{
closed = 1;
nodes = (
"34 103 LINE",
"96 103 LINE",
"136 289 LINE",
"202 636 LINE",
"130 636 LINE"
);
},
{
closed = 1;
nodes = (
"84 34 OFFCURVE",
"162 -14 OFFCURVE",
"257 -14 CURVE SMOOTH",
"345 -14 OFFCURVE",
"421 13 OFFCURVE",
"497 86 CURVE",
"450 141 LINE",
"394 94 OFFCURVE",
"353 59 OFFCURVE",
"256 59 CURVE SMOOTH",
"210 59 OFFCURVE",
"178 72 OFFCURVE",
"146 93 CURVE",
"549 594 LINE",
"491 636 LINE",
"202 276 LINE",
"94 139 LINE",
"34 103 LINE"
);
}
);
width = 546;
}
);
unicode = 1C65;
},
{
glyphname = "ih-olchiki";
lastChange = "2015-11-30 08:03:40 +0000";
layers = (
{
background = {
paths = (
{
closed = 1;
nodes = (
"317 175 LINE",
"413 -4 LINE",
"525 46 OFFCURVE",
"616 172 OFFCURVE",
"642 319 CURVE SMOOTH",
"665 447 OFFCURVE",
"621 565 OFFCURVE",
"569 631 CURVE",
"501 583 LINE",
"532 543 OFFCURVE",
"587 442 OFFCURVE",
"564 313 CURVE SMOOTH",
"549 231 OFFCURVE",
"507 149 OFFCURVE",
"447 98 CURVE",
"355 266 LINE",
"311 266 LINE",
"159 98 LINE",
"117 149 OFFCURVE",
"103 231 OFFCURVE",
"118 313 CURVE SMOOTH",
"141 442 OFFCURVE",
"230 543 OFFCURVE",
"277 583 CURVE",
"225 631 LINE",
"149 565 OFFCURVE",
"65 447 OFFCURVE",
"42 319 CURVE SMOOTH",
"16 172 OFFCURVE",
"63 46 OFFCURVE",
"157 -4 CURVE"
);
},
{
closed = 1;
nodes = (
"257 -4 OFFCURVE",
"307 75 OFFCURVE",
"330 135 CURVE",
"339 74 OFFCURVE",
"375 -4 OFFCURVE",
"461 -4 CURVE",
"606 -4 OFFCURVE",
"645 188 OFFCURVE",
"645 297 CURVE SMOOTH",
"645 459 OFFCURVE",
"591 577 OFFCURVE",
"549 631 CURVE",
"492 591 LINE",
"517 559 OFFCURVE",
"577 450 OFFCURVE",
"577 297 CURVE SMOOTH",
"577 214 OFFCURVE",
"553 70 OFFCURVE",
"471 70 CURVE",
"391 70 OFFCURVE",
"386 181 OFFCURVE",
"375 266 CURVE",
"313 266 LINE",
"266 150 OFFCURVE",
"234 70 OFFCURVE",
"167 70 CURVE",
"119 70 OFFCURVE",
"104 136 OFFCURVE",
"104 200 CURVE SMOOTH",
"104 360 OFFCURVE",
"164 490 OFFCURVE",
"275 585 CURVE",
"225 631 LINE",
"95 518 OFFCURVE",
"31 362 OFFCURVE",
"31 200 CURVE SMOOTH",
"30 91 OFFCURVE",
"66 -4 OFFCURVE",
"156 -4 CURVE"
);
}
);
};
guideLines = (
{
angle = 90;
position = "{316, 344}";
}
);
layerId = "A591124E-510C-4EE7-8335-8E9FAE8FCE08";
name = "Regular Italic";
paths = (
{
closed = 1;
nodes = (
"257 -4 OFFCURVE",
"308 85 OFFCURVE",
"331 145 CURVE",
"340 84 OFFCURVE",
"375 -4 OFFCURVE",
"461 -4 CURVE",
"611 -4 OFFCURVE",
"658 158 OFFCURVE",
"658 297 CURVE SMOOTH",
"658 459 OFFCURVE",
"591 577 OFFCURVE",
"549 631 CURVE",
"491 590 LINE",
"516 558 OFFCURVE",
"587 450 OFFCURVE",
"587 297 CURVE SMOOTH",
"587 184 OFFCURVE",
"553 70 OFFCURVE",
"471 70 CURVE",
"395 70 OFFCURVE",
"387 178 OFFCURVE",
"376 250 CURVE",
"306 250 LINE",
"262 143 OFFCURVE",
"230 70 OFFCURVE",
"167 70 CURVE",
"119 70 OFFCURVE",
"93 136 OFFCURVE",
"93 200 CURVE SMOOTH",
"93 370 OFFCURVE",
"169 485 OFFCURVE",
"250 590 CURVE",
"195 631 LINE",
"94 508 OFFCURVE",
"21 362 OFFCURVE",
"20 200 CURVE SMOOTH",
"20 91 OFFCURVE",
"66 -4 OFFCURVE",
"156 -4 CURVE"
);
}
);
width = 675;
}
);
rightKerningGroup = at;
unicode = 1C66;
},
{
glyphname = "iny-olchiki";
lastChange = "2015-11-23 11:58:20 +0000";
layers = (
{
background = {
paths = (
{
closed = 1;
nodes = (
"469 779 LINE",
"357 143 LINE",
"429 143 LINE",
"541 779 LINE"
);
},
{
closed = 1;
nodes = (
"126 461 OFFCURVE",
"205 587 OFFCURVE",
"331 587 CURVE",
"380 587 OFFCURVE",
"412 557 OFFCURVE",
"443 511 CURVE",
"478 541 LINE",
"431 614 OFFCURVE",
"392 654 OFFCURVE",
"319 654 CURVE",
"151 654 OFFCURVE",
"52 486 OFFCURVE",
"52 337 CURVE SMOOTH",
"52 229 OFFCURVE",
"109 140 OFFCURVE",
"202 140 CURVE",
"314 140 OFFCURVE",
"397 255 OFFCURVE",
"445 350 CURVE",
"396 356 LINE",
"346 265 OFFCURVE",
"292 210 OFFCURVE",
"222 210 CURVE",
"154 210 OFFCURVE",
"126 274 OFFCURVE",
"126 344 CURVE SMOOTH"
);
}
);
};
layerId = "A591124E-510C-4EE7-8335-8E9FAE8FCE08";
name = "Regular Italic";
paths = (
{
closed = 1;
nodes = (
"404 0 LINE",
"516 636 LINE",
"444 636 LINE",
"332 0 LINE"
);
},
{
closed = 1;
nodes = (
"126 446 OFFCURVE",
"205 572 OFFCURVE",
"331 572 CURVE",
"380 572 OFFCURVE",
"412 542 OFFCURVE",
"443 496 CURVE",
"478 526 LINE",
"431 599 OFFCURVE",
"392 639 OFFCURVE",
"319 639 CURVE",
"151 639 OFFCURVE",
"52 471 OFFCURVE",
"52 322 CURVE SMOOTH",
"52 214 OFFCURVE",
"109 125 OFFCURVE",
"202 125 CURVE",
"314 125 OFFCURVE",
"397 240 OFFCURVE",
"445 335 CURVE",
"396 341 LINE",
"346 250 OFFCURVE",
"292 195 OFFCURVE",
"222 195 CURVE",
"154 195 OFFCURVE",
"126 259 OFFCURVE",
"126 329 CURVE SMOOTH"
);
}
);
width = 523;
}
);
unicode = 1C67;
},
{
glyphname = "ir-olchiki";
lastChange = "2015-11-23 08:05:19 +0000";
layers = (
{
background = {
paths = (
{
closed = 1;
nodes = (
"476 525 OFFCURVE",
"342 650 OFFCURVE",
"181 650 CURVE SMOOTH",
"137 650 OFFCURVE",
"96 641 OFFCURVE",
"58 623 CURVE",
"89 556 LINE",
"116 569 OFFCURVE",
"147 576 OFFCURVE",
"181 576 CURVE SMOOTH",
"307 576 OFFCURVE",
"399 478 OFFCURVE",
"399 316 CURVE SMOOTH",
"399 207 OFFCURVE",
"357 128 OFFCURVE",
"291 88 CURVE",
"195 226 LINE",
"129 226 LINE",
"10 28 LINE",
"69 -6 LINE",
"164 151 LINE",
"271 -1 LINE",
"378 33 OFFCURVE",
"476 136 OFFCURVE",
"476 316 CURVE SMOOTH"
);
},
{
closed = 1;
nodes = (
"155 496 LINE",
"102 452 LINE",
"377 116 LINE",
"417 180 LINE"
);
}
);
};
guideLines = (
{
angle = 90;
position = "{174, 201}";
}
);
layerId = "A591124E-510C-4EE7-8335-8E9FAE8FCE08";
name = "Regular Italic";
width = 541;
}
);
rightKerningGroup = at;
unicode = 1C68;
},
{
glyphname = "lu-olchiki";
lastChange = "2015-11-23 11:58:20 +0000";
layers = (
{
background = {
paths = (
{
closed = 1;
nodes = (
"72 371 LINE",
"139 341 LINE",
"191 639 LINE",
"119 639 LINE"
);
},
{
closed = 1;
nodes = (
"383 171 OFFCURVE",
"310 91 OFFCURVE",
"210 79 CURVE",
"110 180 LINE",
"33 152 LINE",
"182 0 LINE",
"326 13 OFFCURVE",
"446 118 OFFCURVE",
"472 261 CURVE",
"497 404 OFFCURVE",
"413 509 OFFCURVE",
"274 522 CURVE",
"88 382 LINE",
"139 341 LINE",
"274 443 LINE",
"370 431 OFFCURVE",
"415 351 OFFCURVE",
"399 261 CURVE"
);
},
{
closed = 1;
nodes = (
"95 89 LINE",
"190 636 LINE",
"118 636 LINE",
"26 106 LINE"
);
},
{
closed = 1;
nodes = (
"398 189 OFFCURVE",
"319 69 OFFCURVE",
"208 69 CURVE",
"144 69 OFFCURVE",
"108 100 OFFCURVE",
"79 146 CURVE",
"26 106 LINE",
"73 33 OFFCURVE",
"137 0 OFFCURVE",
"205 0 CURVE",
"373 0 OFFCURVE",
"472 164 OFFCURVE",
"472 313 CURVE SMOOTH",
"472 421 OFFCURVE",
"415 510 OFFCURVE",
"322 510 CURVE",
"210 510 OFFCURVE",
"127 395 OFFCURVE",
"79 300 CURVE",
"128 294 LINE",
"178 385 OFFCURVE",
"232 440 OFFCURVE",
"302 440 CURVE",
"370 440 OFFCURVE",
"398 376 OFFCURVE",
"398 306 CURVE SMOOTH"
);
}
);
};
layerId = "A591124E-510C-4EE7-8335-8E9FAE8FCE08";
name = "Regular Italic";
paths = (
{
closed = 1;
nodes = (
"130 293 LINE",
"190 636 LINE",
"118 636 LINE",
"61 310 LINE"
);
},
{
closed = 1;
nodes = (
"398 189 OFFCURVE",
"319 69 OFFCURVE",
"208 69 CURVE",
"145 69 OFFCURVE",
"115 101 OFFCURVE",
"81 147 CURVE",
"26 106 LINE",
"73 33 OFFCURVE",
"137 0 OFFCURVE",
"205 0 CURVE",
"373 0 OFFCURVE",
"472 164 OFFCURVE",
"472 313 CURVE SMOOTH",
"472 421 OFFCURVE",
"415 510 OFFCURVE",
"322 510 CURVE",
"220 510 OFFCURVE",
"144 414 OFFCURVE",
"95 325 CURVE",
"130 293 LINE",
"180 384 OFFCURVE",
"232 440 OFFCURVE",
"302 440 CURVE",
"370 440 OFFCURVE",
"398 376 OFFCURVE",
"398 306 CURVE SMOOTH"
);
}
);
width = 496;
}
);
rightKerningGroup = aak;
unicode = 1C69;
},
{
glyphname = "uc-olchiki";
lastChange = "2015-11-23 08:05:23 +0000";
layers = (
{
background = {
paths = (
{
closed = 1;
nodes = (
"410 61 OFFCURVE",
"466 112 OFFCURVE",
"511 156 CURVE",
"566 107 LINE",
"500 29 OFFCURVE",
"405 -14 OFFCURVE",
"303 -14 CURVE",
"201 -14 OFFCURVE",
"106 29 OFFCURVE",
"40 107 CURVE",
"95 156 LINE",
"140 112 OFFCURVE",
"196 61 OFFCURVE",
"303 61 CURVE"
);
},
{
closed = 1;
nodes = (
"361 166 OFFCURVE",
"413 194 OFFCURVE",
"457 237 CURVE",
"420 302 LINE",
"392 273 OFFCURVE",
"357 241 OFFCURVE",
"303 241 CURVE",
"249 241 OFFCURVE",
"214 273 OFFCURVE",
"186 302 CURVE",
"149 237 LINE",
"193 194 OFFCURVE",
"245 166 OFFCURVE",
"303 166 CURVE"
);
}
);
};
guideLines = (
{
angle = 90;
position = "{303, 223}";
}
);
layerId = "A591124E-510C-4EE7-8335-8E9FAE8FCE08";
name = "Regular Italic";
width = 606;
}
);
rightKerningGroup = aak;
unicode = 1C6A;
},
{
glyphname = "uy-olchiki";
lastChange = "2015-11-23 11:34:49 +0000";
layers = (
{
background = {
paths = (
{
closed = 1;
nodes = (
"233 35 LINE",
"195 75 OFFCURVE",
"129 175 OFFCURVE",
"129 304 CURVE SMOOTH",
"129 445 OFFCURVE",
"201 573 OFFCURVE",
"340 568 CURVE",
"439 568 OFFCURVE",
"503 505 OFFCURVE",
"523 406 CURVE",
"503 410 OFFCURVE",
"479 413 OFFCURVE",
"457 413 CURVE SMOOTH",
"326 413 OFFCURVE",
"267 309 OFFCURVE",
"267 210 CURVE SMOOTH",
"267 90 OFFCURVE",
"315 -15 OFFCURVE",
"444 -15 CURVE SMOOTH",
"506 -15 OFFCURVE",
"571 26 OFFCURVE",
"603 114 CURVE",
"540 146 LINE",
"514 91 OFFCURVE",
"489 59 OFFCURVE",
"441 59 CURVE SMOOTH",
"379 59 OFFCURVE",
"341 103 OFFCURVE",
"341 209 CURVE SMOOTH",
"341 268 OFFCURVE",
"372 340 OFFCURVE",
"459 340 CURVE SMOOTH",
"518 340 OFFCURVE",
"547 325 OFFCURVE",
"589 315 CURVE",
"605 330 LINE",
"598 526 OFFCURVE",
"495 642 OFFCURVE",
"338 642 CURVE SMOOTH",
"160 642 OFFCURVE",
"55 503 OFFCURVE",
"55 298 CURVE SMOOTH",
"55 170 OFFCURVE",
"116 53 OFFCURVE",
"174 -13 CURVE"
);
}
);
};
layerId = "A591124E-510C-4EE7-8335-8E9FAE8FCE08";
name = "Regular Italic";
paths = (
{
closed = 1;
nodes = (
"145 20 LINE",
"128 63 OFFCURVE",
"116 120 OFFCURVE",
"116 198 CURVE SMOOTH",
"116 337 OFFCURVE",
"183 576 OFFCURVE",
"380 569 CURVE",
"479 569 OFFCURVE",
"525 505 OFFCURVE",
"527 406 CURVE",
"508 410 OFFCURVE",
"486 414 OFFCURVE",
"464 414 CURVE SMOOTH",
"296 414 OFFCURVE",
"231 265 OFFCURVE",
"231 156 CURVE SMOOTH",
"231 63 OFFCURVE",
"268 -13 OFFCURVE",
"370 -13 CURVE SMOOTH",
"442 -13 OFFCURVE",
"511 25 OFFCURVE",
"549 113 CURVE",
"489 148 LINE",
"459 93 OFFCURVE",
"428 61 OFFCURVE",
"380 61 CURVE SMOOTH",
"332 61 OFFCURVE",
"306 88 OFFCURVE",
"306 150 CURVE SMOOTH",
"306 229 OFFCURVE",
"343 340 OFFCURVE",
"458 340 CURVE SMOOTH",
"517 340 OFFCURVE",
"538 327 OFFCURVE",
"578 317 CURVE",
"597 332 LINE",
"624 508 OFFCURVE",
"543 644 OFFCURVE",
"386 644 CURVE SMOOTH",
"115 644 OFFCURVE",
"42 368 OFFCURVE",
"42 186 CURVE SMOOTH",
"42 122 OFFCURVE",
"52 50 OFFCURVE",
"74 -8 CURVE"
);
}
);
width = 620;
}
);
rightKerningGroup = at;
unicode = 1C6D;
},
{
glyphname = "le-olchiki";
lastChange = "2015-11-30 08:03:40 +0000";
layers = (
{
background = {
paths = (
{
closed = 1;
nodes = (
"-9 84 LINE",
"70 9 OFFCURVE",
"127 -14 OFFCURVE",
"219 -14 CURVE SMOOTH",
"311 -14 OFFCURVE",
"414 29 OFFCURVE",
"493 107 CURVE",
"447 156 LINE",
"394 112 OFFCURVE",
"329 61 OFFCURVE",
"232 61 CURVE SMOOTH",
"182 61 OFFCURVE",
"137 74 OFFCURVE",
"104 100 CURVE",
"566 549 LINE",
"498 620 OFFCURVE",
"438 646 OFFCURVE",
"346 646 CURVE SMOOTH",
"254 646 OFFCURVE",
"150 601 OFFCURVE",
"72 525 CURVE",
"118 476 LINE",
"171 520 OFFCURVE",
"241 573 OFFCURVE",
"334 573 CURVE SMOOTH",
"384 573 OFFCURVE",
"429 558 OFFCURVE",
"455 537 CURVE"
);
},
{
closed = 1;
nodes = (
"493 588 OFFCURVE",
"415 636 OFFCURVE",
"320 636 CURVE SMOOTH",
"232 636 OFFCURVE",
"156 609 OFFCURVE",
"80 536 CURVE",
"127 481 LINE",
"183 528 OFFCURVE",
"224 563 OFFCURVE",
"321 563 CURVE SMOOTH",
"367 563 OFFCURVE",
"399 550 OFFCURVE",
"431 529 CURVE",
"483 483 LINE",
"543 519 LINE"
);
},
{
closed = 0;
nodes = (
"-8 103 LINE",
"42 34 OFFCURVE",
"120 -14 OFFCURVE",
"215 -14 CURVE SMOOTH",
"303 -14 OFFCURVE",
"379 13 OFFCURVE",
"455 86 CURVE",
"408 141 LINE",
"352 94 OFFCURVE",
"311 59 OFFCURVE",
"214 59 CURVE SMOOTH",
"168 59 OFFCURVE",
"136 72 OFFCURVE",
"104 93 CURVE",
"543 519 LINE",
"462 537 LINE",
"-2 84 LINE"
);
}
);
};
layerId = "A591124E-510C-4EE7-8335-8E9FAE8FCE08";
name = "Regular Italic";
paths = (
{
closed = 1;
nodes = (
"493 588 OFFCURVE",
"415 636 OFFCURVE",
"320 636 CURVE SMOOTH",
"232 636 OFFCURVE",
"156 609 OFFCURVE",
"80 536 CURVE",
"127 481 LINE",
"183 528 OFFCURVE",
"224 563 OFFCURVE",
"321 563 CURVE SMOOTH",
"367 563 OFFCURVE",
"399 550 OFFCURVE",
"431 529 CURVE",
"483 483 LINE",
"543 519 LINE"
);
},
{
closed = 1;
nodes = (
"49 31 OFFCURVE",
"130 -14 OFFCURVE",
"225 -14 CURVE SMOOTH",
"313 -14 OFFCURVE",
"389 13 OFFCURVE",
"465 86 CURVE",
"418 141 LINE",
"362 94 OFFCURVE",
"321 59 OFFCURVE",
"224 59 CURVE SMOOTH",
"178 59 OFFCURVE",
"141 70 OFFCURVE",
"111 93 CURVE",
"543 519 LINE",
"457 537 LINE",
"3 89 LINE"
);
}
);
width = 526;
}
);
unicode = 1C6E;
},
{
glyphname = "ep-olchiki";
lastChange = "2015-11-30 05:55:27 +0000";
layers = (
{
background = {
paths = (
{
closed = 1;
nodes = (
"73 545 LINE",
"137 589 OFFCURVE",
"246 653 OFFCURVE",
"406 653 CURVE SMOOTH",
"558 653 OFFCURVE",
"648 603 OFFCURVE",
"633 515 CURVE",
"625 469 OFFCURVE",
"592 430 OFFCURVE",
"509 403 CURVE",
"468 171 LINE",
"439 36 LINE",
"373 36 LINE",
"447 453 LINE",
"511 467 OFFCURVE",
"552 487 OFFCURVE",
"557 514 CURVE",
"564 554 OFFCURVE",
"501 583 OFFCURVE",
"394 583 CURVE SMOOTH",
"337 583 OFFCURVE",
"289 573 OFFCURVE",
"248 559 CURVE",
"223 550 LINE",
"171 530 OFFCURVE",
"133 504 OFFCURVE",
"106 486 CURVE"
);
},
{
closed = 1;
nodes = (
"579 94 LINE",
"515 50 OFFCURVE",
"406 -14 OFFCURVE",
"246 -14 CURVE SMOOTH",
"94 -14 OFFCURVE",
"3 36 OFFCURVE",
"19 124 CURVE",
"27 170 OFFCURVE",
"60 209 OFFCURVE",
"143 236 CURVE",
"184 468 LINE",
"212 603 LINE",
"278 603 LINE",
"205 186 LINE",
"140 172 OFFCURVE",
"100 152 OFFCURVE",
"95 125 CURVE",
"88 85 OFFCURVE",
"151 56 OFFCURVE",
"258 56 CURVE SMOOTH",
"315 56 OFFCURVE",
"363 66 OFFCURVE",
"404 80 CURVE",
"429 89 LINE",
"480 109 OFFCURVE",
"519 135 OFFCURVE",
"546 153 CURVE"
);
}
);
};
layerId = "A591124E-510C-4EE7-8335-8E9FAE8FCE08";
name = "Regular Italic";
paths = (
{
closed = 1;
nodes = (
"72 547 LINE",
"136 591 OFFCURVE",
"246 653 OFFCURVE",
"406 653 CURVE SMOOTH",
"537 653 OFFCURVE",
"636 600 OFFCURVE",
"636 523 CURVE SMOOTH",
"636 480 OFFCURVE",
"611 441 OFFCURVE",
"509 403 CURVE",
"468 171 LINE",
"439 36 LINE",
"373 36 LINE",
"447 453 LINE",
"521 473 OFFCURVE",
"557 493 OFFCURVE",
"557 520 CURVE SMOOTH",
"557 557 OFFCURVE",
"495 585 OFFCURVE",
"393 585 CURVE SMOOTH",
"336 585 OFFCURVE",
"289 573 OFFCURVE",
"248 559 CURVE",
"223 550 LINE",
"171 530 OFFCURVE",
"136 506 OFFCURVE",
"108 488 CURVE"
);
},
{
closed = 1;
nodes = (
"579 92 LINE",
"515 48 OFFCURVE",
"405 -14 OFFCURVE",
"245 -14 CURVE SMOOTH",
"114 -14 OFFCURVE",
"15 39 OFFCURVE",
"15 116 CURVE SMOOTH",
"15 159 OFFCURVE",
"40 198 OFFCURVE",
"142 236 CURVE",
"183 468 LINE",
"212 603 LINE",
"278 603 LINE",
"204 186 LINE",
"130 166 OFFCURVE",
"94 146 OFFCURVE",
"94 119 CURVE SMOOTH",
"94 82 OFFCURVE",
"156 54 OFFCURVE",
"258 54 CURVE SMOOTH",
"315 54 OFFCURVE",
"362 66 OFFCURVE",
"404 80 CURVE",
"428 89 LINE",
"480 109 OFFCURVE",
"515 133 OFFCURVE",
"543 151 CURVE"
);
}
);
width = 627;
}
);
unicode = 1C6F;
},
{
glyphname = "edd-olchiki";
lastChange = "2015-11-23 11:23:38 +0000";
layers = (
{
background = {
paths = (
{
closed = 1;
nodes = (
"873 597 LINE",
"791 542 OFFCURVE",
"735 446 OFFCURVE",
"735 324 CURVE SMOOTH",
"735 106 OFFCURVE",
"858 -12 OFFCURVE",
"1032 -12 CURVE SMOOTH",
"1053 -12 OFFCURVE",
"1077 -10 OFFCURVE",
"1096 -5 CURVE",
"1042 74 LINE",
"906 60 OFFCURVE",
"813 158 OFFCURVE",
"813 324 CURVE SMOOTH",
"813 419 OFFCURVE",
"863 490 OFFCURVE",
"920 527 CURVE"
);
},
{
closed = 1;
nodes = (
"1096 -5 LINE",
"1096 636 LINE",
"1013 639 LINE",
"1013 0 LINE"
);
},
{
closed = 1;
nodes = (
"1236 37 LINE",
"1318 92 OFFCURVE",
"1374 188 OFFCURVE",
"1374 310 CURVE SMOOTH",
"1374 528 OFFCURVE",
"1251 646 OFFCURVE",
"1077 646 CURVE SMOOTH",
"1056 646 OFFCURVE",
"1032 644 OFFCURVE",
"1013 639 CURVE",
"1067 560 LINE",
"1203 574 OFFCURVE",
"1296 476 OFFCURVE",
"1296 310 CURVE SMOOTH",
"1296 215 OFFCURVE",
"1246 144 OFFCURVE",
"1189 107 CURVE"
);
},
{
closed = 1;
nodes = (
"-224 636 LINE",
"-224 0 LINE",
"-146 0 LINE",
"-146 636 LINE"
);
},
{
closed = 1;
nodes = (
"-553 623 OFFCURVE",
"-665 505 OFFCURVE",
"-665 318 CURVE SMOOTH",
"-665 111 OFFCURVE",
"-531 -3 OFFCURVE",
"-407 -3 CURVE",
"-160 287 LINE",
"-218 335 LINE",
"-438 81 LINE",
"-506 101 OFFCURVE",
"-582 163 OFFCURVE",
"-582 318 CURVE SMOOTH",
"-582 464 OFFCURVE",
"-505 555 OFFCURVE",
"-394 571 CURVE",
"-420 646 LINE"
);
},
{
closed = 1;
nodes = (
"-382 636 LINE",
"-382 0 LINE",
"-304 0 LINE",
"-304 636 LINE"
);
},
{
closed = 1;
nodes = (
"324 558 LINE",
"324 289 LINE",
"334 130 LINE",
"396 130 LINE",
"396 558 LINE"
);
},
{
closed = 1;
nodes = (
"36 109 OFFCURVE",
"169 -15 OFFCURVE",
"331 -15 CURVE SMOOTH",
"492 -15 OFFCURVE",
"626 109 OFFCURVE",
"626 316 CURVE SMOOTH",
"626 525 OFFCURVE",
"492 650 OFFCURVE",
"331 650 CURVE SMOOTH",
"169 650 OFFCURVE",
"36 525 OFFCURVE",
"36 316 CURVE SMOOTH"
);
},
{
closed = 1;
nodes = (
"549 155 OFFCURVE",
"457 59 OFFCURVE",
"331 59 CURVE SMOOTH",
"204 59 OFFCURVE",
"113 155 OFFCURVE",
"113 316 CURVE SMOOTH",
"113 478 OFFCURVE",
"204 576 OFFCURVE",
"331 576 CURVE SMOOTH",
"457 576 OFFCURVE",
"549 478 OFFCURVE",
"549 316 CURVE SMOOTH"
);
},
{
closed = 1;
nodes = (
"176 601 LINE",
"94 546 OFFCURVE",
"35 452 OFFCURVE",
"35 324 CURVE SMOOTH",
"35 116 OFFCURVE",
"158 -10 OFFCURVE",
"332 -10 CURVE SMOOTH",
"353 -10 OFFCURVE",
"377 -8 OFFCURVE",
"396 -5 CURVE",
"342 63 LINE",
"193 58 OFFCURVE",
"109 167 OFFCURVE",
"109 318 CURVE SMOOTH",
"109 449 OFFCURVE",
"167 506 OFFCURVE",
"220 543 CURVE"
);
},
{
closed = 1;
nodes = (
"396 -5 LINE",
"396 636 LINE",
"324 639 LINE",
"324 0 LINE"
);
},
{
closed = 1;
nodes = (
"544 33 LINE",
"626 88 OFFCURVE",
"685 182 OFFCURVE",
"685 310 CURVE SMOOTH",
"685 518 OFFCURVE",
"562 644 OFFCURVE",
"388 644 CURVE SMOOTH",
"367 644 OFFCURVE",
"343 642 OFFCURVE",
"324 639 CURVE",
"378 571 LINE",
"527 576 OFFCURVE",
"611 467 OFFCURVE",
"611 316 CURVE SMOOTH",
"611 185 OFFCURVE",
"553 128 OFFCURVE",
"500 91 CURVE"
);
}
);
};
layerId = "A591124E-510C-4EE7-8335-8E9FAE8FCE08";
name = "Regular Italic";
width = 720;
}
);
rightKerningGroup = at;
unicode = 1C70;
},
{
color = 4;
glyphname = "en-olchiki";
lastChange = "2015-11-30 09:10:38 +0000";
layers = (
{
background = {
paths = (
{
closed = 1;
nodes = (
"46 103 LINE",
"108 103 LINE",
"207 536 LINE",
"140 536 LINE"
);
},
{
closed = 1;
nodes = (
"5 91 LINE",
"55 28 OFFCURVE",
"130 -14 OFFCURVE",
"219 -14 CURVE SMOOTH",
"307 -14 OFFCURVE",
"383 13 OFFCURVE",
"459 86 CURVE",
"412 141 LINE",
"356 94 OFFCURVE",
"315 59 OFFCURVE",
"218 59 CURVE SMOOTH",
"172 59 OFFCURVE",
"140 72 OFFCURVE",
"108 93 CURVE",
"518 528 LINE",
"460 570 LINE",
"164 276 LINE",
"56 139 LINE"
);
},
{
closed = 1;
nodes = (
"553 588 OFFCURVE",
"475 636 OFFCURVE",
"380 636 CURVE SMOOTH",
"292 636 OFFCURVE",
"216 609 OFFCURVE",
"140 536 CURVE",
"187 481 LINE",
"243 528 OFFCURVE",
"284 563 OFFCURVE",
"381 563 CURVE SMOOTH",
"427 563 OFFCURVE",
"459 550 OFFCURVE",
"491 529 CURVE",
"543 473 LINE",
"603 519 LINE"
);
},
{
closed = 1;
nodes = (
"46 103 LINE",
"118 123 LINE",
"214 536 LINE",
"140 536 LINE"
);
},
{
closed = 1;
nodes = (
"6 91 LINE",
"56 28 OFFCURVE",
"130 -14 OFFCURVE",
"219 -14 CURVE SMOOTH",
"307 -14 OFFCURVE",
"383 13 OFFCURVE",
"459 86 CURVE",
"412 141 LINE",
"356 94 OFFCURVE",
"315 59 OFFCURVE",
"218 59 CURVE SMOOTH",
"172 59 OFFCURVE",
"140 72 OFFCURVE",
"108 93 CURVE",
"498 528 LINE",
"443 570 LINE",
"164 256 LINE",
"56 139 LINE"
);
},
{
closed = 1;
nodes = (
"533 588 OFFCURVE",
"458 636 OFFCURVE",
"363 636 CURVE SMOOTH",
"287 636 OFFCURVE",
"216 609 OFFCURVE",
"140 536 CURVE",
"187 484 LINE",
"239 534 OFFCURVE",
"290 567 OFFCURVE",
"361 567 CURVE SMOOTH",
"421 567 OFFCURVE",
"474 540 OFFCURVE",
"532 471 CURVE",
"583 519 LINE"
);
}
);
};
layerId = "A591124E-510C-4EE7-8335-8E9FAE8FCE08";
name = "Regular Italic";
paths = (
{
closed = 1;
nodes = (
"46 103 LINE",
"98 123 LINE",
"159 301 LINE",
"214 536 LINE",
"140 536 LINE"
);
},
{
closed = 1;
nodes = (
"7 90 LINE",
"57 27 OFFCURVE",
"130 -14 OFFCURVE",
"219 -14 CURVE SMOOTH",
"307 -14 OFFCURVE",
"383 13 OFFCURVE",
"459 86 CURVE",
"412 141 LINE",
"356 94 OFFCURVE",
"315 59 OFFCURVE",
"218 59 CURVE SMOOTH",
"172 59 OFFCURVE",
"140 72 OFFCURVE",
"108 93 CURVE",
"498 528 LINE",
"443 570 LINE",
"164 256 LINE",
"56 139 LINE"
);
},
{
closed = 1;
nodes = (
"535 585 OFFCURVE",
"461 636 OFFCURVE",
"363 636 CURVE SMOOTH",
"287 636 OFFCURVE",
"216 609 OFFCURVE",
"140 536 CURVE",
"187 484 LINE",
"239 534 OFFCURVE",
"290 567 OFFCURVE",
"361 567 CURVE SMOOTH",
"421 567 OFFCURVE",
"474 540 OFFCURVE",
"532 471 CURVE",
"585 516 LINE"
);
}
);
width = 563;
}
);
rightKerningGroup = li;
unicode = 1C71;
},
{
color = 4;
glyphname = "err-olchiki";
lastChange = "2015-11-30 09:15:52 +0000";
layers = (
{
background = {
paths = (
{
closed = 1;
nodes = (
"527 110 LINE",
"527 565 LINE",
"435 565 LINE",
"435 323 LINE",
"453 110 LINE"
);
},
{
closed = 1;
nodes = (
"183 591 LINE",
"107 545 LINE",
"437 123 LINE",
"400 102 OFFCURVE",
"366 92 OFFCURVE",
"315 92 CURVE SMOOTH",
"224 92 OFFCURVE",
"176 128 OFFCURVE",
"131 172 CURVE",
"59 116 LINE",
"120 33 OFFCURVE",
"221 -6 OFFCURVE",
"315 -6 CURVE SMOOTH",
"404 -6 OFFCURVE",
"496 26 OFFCURVE",
"563 101 CURVE"
);
},
{
closed = 1;
nodes = (
"527 565 LINE",
"466 616 OFFCURVE",
"390 650 OFFCURVE",
"294 650 CURVE SMOOTH",
"187 650 OFFCURVE",
"95 606 OFFCURVE",
"34 528 CURVE",
"106 472 LINE",
"151 516 OFFCURVE",
"200 552 OFFCURVE",
"290 552 CURVE SMOOTH",
"366 552 OFFCURVE",
"400 530 OFFCURVE",
"437 509 CURVE"
);
},
{
closed = 1;
nodes = (
"483 616 OFFCURVE",
"391 648 OFFCURVE",
"302 648 CURVE SMOOTH",
"210 648 OFFCURVE",
"115 611 OFFCURVE",
"49 530 CURVE",
"112 473 LINE",
"157 517 OFFCURVE",
"209 562 OFFCURVE",
"302 562 CURVE SMOOTH",
"368 562 OFFCURVE",
"420 550 OFFCURVE",
"465 496 CURVE",
"550 541 LINE"
);
},
{
closed = 1;
nodes = (
"444 565 LINE",
"444 289 LINE",
"454 130 LINE",
"527 130 LINE",
"527 565 LINE"
);
},
{
closed = 1;
nodes = (
"175 592 LINE",
"111 545 LINE",
"448 115 LINE",
"411 88 OFFCURVE",
"366 74 OFFCURVE",
"315 74 CURVE SMOOTH",
"222 74 OFFCURVE",
"170 119 OFFCURVE",
"125 163 CURVE",
"62 106 LINE",
"128 25 OFFCURVE",
"223 -12 OFFCURVE",
"315 -12 CURVE SMOOTH",
"404 -12 OFFCURVE",
"496 20 OFFCURVE",
"563 95 CURVE"
);
},
{
closed = 1;
nodes = (
"527 565 LINE",
"463 621 OFFCURVE",
"383 648 OFFCURVE",
"302 648 CURVE SMOOTH",
"208 648 OFFCURVE",
"116 613 OFFCURVE",
"42 522 CURVE",
"103 464 LINE",
"157 517 OFFCURVE",
"209 562 OFFCURVE",
"302 562 CURVE SMOOTH",
"368 562 OFFCURVE",
"420 550 OFFCURVE",
"465 496 CURVE"
);
},
{
closed = 1;
nodes = (
"444 565 LINE",
"444 289 LINE",
"454 130 LINE",
"527 130 LINE",
"527 565 LINE"
);
},
{
closed = 1;
nodes = (
"487 179 LINE",
"417 282 LINE",
"175 592 LINE",
"111 545 LINE",
"448 115 LINE",
"411 88 OFFCURVE",
"366 74 OFFCURVE",
"315 74 CURVE SMOOTH",
"222 74 OFFCURVE",
"170 119 OFFCURVE",
"125 163 CURVE",
"62 106 LINE",
"128 25 OFFCURVE",
"223 -12 OFFCURVE",
"315 -12 CURVE SMOOTH",
"404 -12 OFFCURVE",
"496 20 OFFCURVE",
"563 95 CURVE"
);
},
{
closed = 1;
nodes = (
"527 565 LINE",
"463 621 OFFCURVE",
"383 648 OFFCURVE",
"302 648 CURVE SMOOTH",
"208 648 OFFCURVE",
"118 610 OFFCURVE",
"42 522 CURVE",
"103 467 LINE",
"157 520 OFFCURVE",
"209 565 OFFCURVE",
"302 565 CURVE SMOOTH",
"368 565 OFFCURVE",
"432 544 OFFCURVE",
"465 499 CURVE"
);
}
);
};
layerId = "A591124E-510C-4EE7-8335-8E9FAE8FCE08";
name = "Regular Italic";
paths = (
{
closed = 1;
nodes = (
"538 519 LINE",
"486 499 LINE",
"425 321 LINE",
"370 86 LINE",
"444 86 LINE"
);
},
{
closed = 1;
nodes = (
"577 532 LINE",
"527 595 OFFCURVE",
"454 636 OFFCURVE",
"365 636 CURVE SMOOTH",
"277 636 OFFCURVE",
"201 609 OFFCURVE",
"125 536 CURVE",
"172 481 LINE",
"228 528 OFFCURVE",
"269 563 OFFCURVE",
"366 563 CURVE SMOOTH",
"412 563 OFFCURVE",
"444 550 OFFCURVE",
"476 529 CURVE",
"86 94 LINE",
"141 52 LINE",
"420 366 LINE",
"528 483 LINE"
);
},
{
closed = 1;
nodes = (
"49 37 OFFCURVE",
"123 -14 OFFCURVE",
"221 -14 CURVE SMOOTH",
"297 -14 OFFCURVE",
"368 13 OFFCURVE",
"444 86 CURVE",
"397 138 LINE",
"345 88 OFFCURVE",
"294 55 OFFCURVE",
"223 55 CURVE SMOOTH",
"163 55 OFFCURVE",
"110 82 OFFCURVE",
"52 151 CURVE",
"-1 106 LINE"
);
}
);
width = 563;
}
);
unicode = 1C72;
},
{
glyphname = "lo-olchiki";
lastChange = "2015-11-23 08:05:38 +0000";
layers = (
{
background = {
paths = (
{
closed = 1;
nodes = (
"318 318 LINE",
"546 528 LINE",
"491 607 OFFCURVE",
"406 650 OFFCURVE",
"311 650 CURVE SMOOTH",
"181 650 OFFCURVE",
"69 569 OFFCURVE",
"30 428 CURVE",
"103 402 LINE",
"129 512 OFFCURVE",
"208 576 OFFCURVE",
"311 576 CURVE SMOOTH",
"362 576 OFFCURVE",
"408 560 OFFCURVE",
"444 530 CURVE",
"238 342 LINE",
"238 295 LINE",
"445 105 LINE",
"409 75 OFFCURVE",
"363 59 OFFCURVE",
"312 59 CURVE SMOOTH",
"209 59 OFFCURVE",
"130 123 OFFCURVE",
"104 233 CURVE",
"31 207 LINE",
"70 66 OFFCURVE",
"182 -15 OFFCURVE",
"312 -15 CURVE SMOOTH",
"407 -15 OFFCURVE",
"492 28 OFFCURVE",
"547 107 CURVE"
);
}
);
};
layerId = "A591124E-510C-4EE7-8335-8E9FAE8FCE08";
name = "Regular Italic";
width = 651;
}
);
rightKerningGroup = at;
unicode = 1C73;
},
{
glyphname = "ott-olchiki";
lastChange = "2015-11-23 11:34:49 +0000";
layers = (
{
background = {
paths = (
{
closed = 1;
nodes = (
"741 0 LINE",
"741 636 LINE",
"658 636 LINE",
"658 0 LINE"
);
},
{
closed = 1;
nodes = (
"942 -13 LINE",
"1080 44 OFFCURVE",
"1177 139 OFFCURVE",
"1177 325 CURVE SMOOTH",
"1177 517 OFFCURVE",
"1059 630 OFFCURVE",
"909 639 CURVE",
"672 349 LINE",
"730 305 LINE",
"945 565 LINE",
"1012 556 OFFCURVE",
"1098 473 OFFCURVE",
"1098 325 CURVE SMOOTH",
"1098 179 OFFCURVE",
"1023 108 OFFCURVE",
"905 65 CURVE"
);
},
{
closed = 1;
nodes = (
"741 0 LINE",
"741 636 LINE",
"658 636 LINE",
"658 0 LINE"
);
},
{
closed = 1;
nodes = (
"942 -13 LINE",
"1080 44 OFFCURVE",
"1177 139 OFFCURVE",
"1177 325 CURVE SMOOTH",
"1177 517 OFFCURVE",
"1059 636 OFFCURVE",
"909 649 CURVE",
"672 349 LINE",
"730 298 LINE",
"940 557 LINE",
"1011 548 OFFCURVE",
"1098 473 OFFCURVE",
"1098 325 CURVE SMOOTH",
"1098 179 OFFCURVE",
"1023 108 OFFCURVE",
"905 65 CURVE"
);
},
{
closed = 1;
nodes = (
"658 130 LINE",
"720 130 LINE",
"730 289 LINE",
"730 636 LINE",
"658 636 LINE"
);
},
{
closed = 1;
nodes = (
"427 33 LINE",
"509 88 OFFCURVE",
"568 182 OFFCURVE",
"568 310 CURVE SMOOTH",
"568 518 OFFCURVE",
"445 644 OFFCURVE",
"271 644 CURVE SMOOTH",
"250 644 OFFCURVE",
"226 642 OFFCURVE",
"207 639 CURVE",
"261 571 LINE",
"410 576 OFFCURVE",
"494 467 OFFCURVE",
"494 316 CURVE SMOOTH",
"494 185 OFFCURVE",
"436 128 OFFCURVE",
"383 91 CURVE"
);
}
);
};
layerId = "A591124E-510C-4EE7-8335-8E9FAE8FCE08";
name = "Regular Italic";
paths = (
{
closed = 1;
nodes = (
"104 -3 LINE",
"151 262 LINE",
"174 388 OFFCURVE",
"271 562 OFFCURVE",
"406 562 CURVE SMOOTH",
"473 562 OFFCURVE",
"511 498 OFFCURVE",
"511 406 CURVE SMOOTH",
"511 250 OFFCURVE",
"456 117 OFFCURVE",
"273 67 CURVE",
"295 -3 LINE",
"507 59 OFFCURVE",
"586 223 OFFCURVE",
"586 409 CURVE SMOOTH",
"586 546 OFFCURVE",
"514 636 OFFCURVE",
"416 636 CURVE SMOOTH",
"329 636 OFFCURVE",
"250 573 OFFCURVE",
"191 485 CURVE",
"187 485 LINE",
"206 633 LINE",
"142 633 LINE",
"29 -3 LINE"
);
}
);
width = 600;
}
);
rightKerningGroup = at;
unicode = 1C74;
},
{
glyphname = "ob-olchiki";
lastChange = "2015-11-23 08:05:41 +0000";
layers = (
{
background = {
paths = (
{
closed = 1;
nodes = (
"184 151 OFFCURVE",
"130 215 OFFCURVE",
"130 310 CURVE SMOOTH",
"130 466 OFFCURVE",
"223 554 OFFCURVE",
"359 540 CURVE",
"413 639 LINE",
"394 646 OFFCURVE",
"380 646 OFFCURVE",
"359 646 CURVE SMOOTH",
"175 646 OFFCURVE",
"35 523 OFFCURVE",
"35 310 CURVE SMOOTH",
"35 178 OFFCURVE",
"108 80 OFFCURVE",
"190 25 CURVE",
"241 114 LINE"
);
},
{
closed = 1;
nodes = (
"544 483 OFFCURVE",
"598 413 OFFCURVE",
"598 324 CURVE SMOOTH",
"598 168 OFFCURVE",
"505 80 OFFCURVE",
"369 94 CURVE",
"315 -5 LINE",
"334 -12 OFFCURVE",
"348 -12 OFFCURVE",
"369 -12 CURVE SMOOTH",
"553 -12 OFFCURVE",
"693 111 OFFCURVE",
"693 324 CURVE SMOOTH",
"693 450 OFFCURVE",
"626 547 OFFCURVE",
"548 602 CURVE",
"487 520 LINE"
);
},
{
closed = 1;
nodes = (
"315 630 LINE",
"315 -5 LINE",
"413 4 LINE",
"413 639 LINE"
);
},
{
closed = 1;
nodes = (
"163 144 OFFCURVE",
"113 215 OFFCURVE",
"113 310 CURVE SMOOTH",
"113 476 OFFCURVE",
"206 574 OFFCURVE",
"342 560 CURVE",
"396 639 LINE",
"377 644 OFFCURVE",
"353 646 OFFCURVE",
"332 646 CURVE SMOOTH",
"158 646 OFFCURVE",
"35 528 OFFCURVE",
"35 310 CURVE SMOOTH",
"35 188 OFFCURVE",
"91 92 OFFCURVE",
"173 37 CURVE",
"220 107 LINE"
);
},
{
closed = 1;
nodes = (
"313 -5 LINE",
"396 -2 LINE",
"396 639 LINE",
"313 634 LINE"
);
},
{
closed = 1;
nodes = (
"546 490 OFFCURVE",
"596 419 OFFCURVE",
"596 324 CURVE SMOOTH",
"596 158 OFFCURVE",
"503 60 OFFCURVE",
"367 74 CURVE",
"313 -5 LINE",
"332 -10 OFFCURVE",
"356 -12 OFFCURVE",
"377 -12 CURVE SMOOTH",
"551 -12 OFFCURVE",
"674 106 OFFCURVE",
"674 324 CURVE SMOOTH",
"674 446 OFFCURVE",
"618 542 OFFCURVE",
"536 597 CURVE",
"489 527 LINE"
);
},
{
closed = 1;
nodes = (
"166 129 OFFCURVE",
"115 205 OFFCURVE",
"115 310 CURVE SMOOTH",
"115 476 OFFCURVE",
"211 574 OFFCURVE",
"342 560 CURVE",
"396 639 LINE",
"377 642 OFFCURVE",
"353 644 OFFCURVE",
"332 644 CURVE SMOOTH",
"158 644 OFFCURVE",
"35 518 OFFCURVE",
"35 310 CURVE SMOOTH",
"35 191 OFFCURVE",
"91 86 OFFCURVE",
"173 31 CURVE",
"223 92 LINE"
);
},
{
closed = 1;
nodes = (
"318 -5 LINE",
"396 -2 LINE",
"396 639 LINE",
"318 634 LINE"
);
},
{
closed = 1;
nodes = (
"548 505 OFFCURVE",
"599 429 OFFCURVE",
"599 324 CURVE SMOOTH",
"599 158 OFFCURVE",
"503 60 OFFCURVE",
"372 74 CURVE",
"318 -5 LINE",
"337 -8 OFFCURVE",
"361 -10 OFFCURVE",
"382 -10 CURVE SMOOTH",
"556 -10 OFFCURVE",
"679 116 OFFCURVE",
"679 324 CURVE SMOOTH",
"679 443 OFFCURVE",
"623 548 OFFCURVE",
"541 603 CURVE",
"491 542 LINE"
);
},
{
closed = 1;
nodes = (
"167 128 OFFCURVE",
"109 185 OFFCURVE",
"109 316 CURVE SMOOTH",
"109 467 OFFCURVE",
"193 576 OFFCURVE",
"342 571 CURVE",
"396 639 LINE",
"377 642 OFFCURVE",
"353 644 OFFCURVE",
"332 644 CURVE SMOOTH",
"158 644 OFFCURVE",
"35 518 OFFCURVE",
"35 310 CURVE SMOOTH",
"35 182 OFFCURVE",
"94 88 OFFCURVE",
"176 33 CURVE",
"220 91 LINE"
);
},
{
closed = 1;
nodes = (
"324 -5 LINE",
"396 -2 LINE",
"396 639 LINE",
"324 634 LINE"
);
},
{
closed = 1;
nodes = (
"553 506 OFFCURVE",
"611 449 OFFCURVE",
"611 318 CURVE SMOOTH",
"611 167 OFFCURVE",
"527 58 OFFCURVE",
"378 63 CURVE",
"324 -5 LINE",
"343 -8 OFFCURVE",
"367 -10 OFFCURVE",
"388 -10 CURVE SMOOTH",
"562 -10 OFFCURVE",
"685 116 OFFCURVE",
"685 324 CURVE SMOOTH",
"685 452 OFFCURVE",
"626 546 OFFCURVE",
"544 601 CURVE",
"500 543 LINE"
);
}
);
};
layerId = "A591124E-510C-4EE7-8335-8E9FAE8FCE08";
name = "Regular Italic";
width = 720;
}
);
rightKerningGroup = at;
unicode = 1C75;
},
{
glyphname = "ov-olchiki";
lastChange = "2015-11-23 11:58:20 +0000";
layers = (
{
background = {
paths = (
{
closed = 1;
nodes = (
"509 419 LINE",
"475 173 OFFCURVE",
"379 54 OFFCURVE",
"258 59 CURVE",
"159 59 OFFCURVE",
"121 123 OFFCURVE",
"120 230 CURVE",
"140 227 OFFCURVE",
"164 226 OFFCURVE",
"186 226 CURVE SMOOTH",
"317 226 OFFCURVE",
"394 318 OFFCURVE",
"414 435 CURVE SMOOTH",
"433 541 OFFCURVE",
"407 642 OFFCURVE",
"278 642 CURVE SMOOTH",
"216 642 OFFCURVE",
"140 601 OFFCURVE",
"92 513 CURVE",
"150 481 LINE",
"185 536 OFFCURVE",
"220 568 OFFCURVE",
"268 568 CURVE SMOOTH",
"330 568 OFFCURVE",
"356 524 OFFCURVE",
"340 432 CURVE SMOOTH",
"325 349 OFFCURVE",
"285 297 OFFCURVE",
"182 297 CURVE SMOOTH",
"139 297 OFFCURVE",
"111 303 OFFCURVE",
"71 312 CURVE",
"52 297 LINE",
"25 101 OFFCURVE",
"90 -15 OFFCURVE",
"247 -15 CURVE SMOOTH",
"413 -15 OFFCURVE",
"541 124 OFFCURVE",
"583 419 CURVE"
);
},
{
closed = 1;
nodes = (
"587 479 OFFCURVE",
"612 501 OFFCURVE",
"618 532 CURVE SMOOTH",
"623 564 OFFCURVE",
"606 585 OFFCURVE",
"574 585 CURVE SMOOTH",
"542 585 OFFCURVE",
"517 564 OFFCURVE",
"512 532 CURVE SMOOTH",
"506 501 OFFCURVE",
"523 479 OFFCURVE",
"555 479 CURVE SMOOTH"
);
}
);
};
layerId = "A591124E-510C-4EE7-8335-8E9FAE8FCE08";
name = "Regular Italic";
paths = (
{
closed = 1;
nodes = (
"508 419 LINE",
"504 279 OFFCURVE",
"436 53 OFFCURVE",
"244 60 CURVE",
"145 60 OFFCURVE",
"99 124 OFFCURVE",
"97 223 CURVE",
"116 219 OFFCURVE",
"138 215 OFFCURVE",
"160 215 CURVE SMOOTH",
"328 215 OFFCURVE",
"393 364 OFFCURVE",
"393 473 CURVE SMOOTH",
"393 566 OFFCURVE",
"356 642 OFFCURVE",
"254 642 CURVE SMOOTH",
"182 642 OFFCURVE",
"113 604 OFFCURVE",
"75 516 CURVE",
"135 481 LINE",
"165 536 OFFCURVE",
"196 568 OFFCURVE",
"244 568 CURVE SMOOTH",
"292 568 OFFCURVE",
"318 541 OFFCURVE",
"318 479 CURVE SMOOTH",
"318 400 OFFCURVE",
"281 289 OFFCURVE",
"166 289 CURVE SMOOTH",
"107 289 OFFCURVE",
"86 302 OFFCURVE",
"46 312 CURVE",
"27 297 LINE",
"0 121 OFFCURVE",
"81 -15 OFFCURVE",
"238 -15 CURVE SMOOTH",
"498 -15 OFFCURVE",
"576 238 OFFCURVE",
"582 419 CURVE"
);
},
{
closed = 1;
nodes = (
"546 479 CURVE SMOOTH",
"577 479 OFFCURVE",
"604 503 OFFCURVE",
"604 536 CURVE SMOOTH",
"604 565 OFFCURVE",
"581 582 OFFCURVE",
"555 582 CURVE SMOOTH",
"524 582 OFFCURVE",
"497 557 OFFCURVE",
"497 524 CURVE SMOOTH",
"497 495 OFFCURVE",
"520 479 OFFCURVE"
);
}
);
width = 604;
}
);
unicode = 1C76;
},
{
glyphname = "oh-olchiki";
lastChange = "2015-11-30 08:03:40 +0000";
layers = (
{
background = {
paths = (
{
closed = 1;
nodes = (
"104 149 OFFCURVE",
"90 231 OFFCURVE",
"105 313 CURVE SMOOTH",
"112 351 OFFCURVE",
"124 386 OFFCURVE",
"139 418 CURVE",
"73 443 LINE",
"54 404 OFFCURVE",
"40 362 OFFCURVE",
"32 319 CURVE SMOOTH",
"6 172 OFFCURVE",
"50 46 OFFCURVE",
"144 -4 CURVE",
"302 165 LINE",
"400 -4 LINE",
"555 65 OFFCURVE",
"631 258 OFFCURVE",
"631 372 CURVE SMOOTH",
"632 500 OFFCURVE",
"560 648 OFFCURVE",
"390 648 CURVE",
"281 648 OFFCURVE",
"206 592 OFFCURVE",
"191 509 CURVE",
"163 348 OFFCURVE",
"342 282 OFFCURVE",
"565 259 CURVE",
"596 330 LINE",
"478 341 OFFCURVE",
"242 372 OFFCURVE",
"266 505 CURVE",
"275 556 OFFCURVE",
"322 578 OFFCURVE",
"374 578 CURVE",
"486 578 OFFCURVE",
"557 484 OFFCURVE",
"556 364 CURVE",
"556 221 OFFCURVE",
"507 160 OFFCURVE",
"434 98 CURVE",
"340 256 LINE",
"296 256 LINE",
"146 98 LINE"
);
}
);
};
layerId = "A591124E-510C-4EE7-8335-8E9FAE8FCE08";
name = "Regular Italic";
paths = (
{
closed = 1;
nodes = (
"586 184 OFFCURVE",
"552 70 OFFCURVE",
"470 70 CURVE",
"394 70 OFFCURVE",
"386 178 OFFCURVE",
"375 250 CURVE",
"305 250 LINE",
"261 143 OFFCURVE",
"229 70 OFFCURVE",
"166 70 CURVE",
"118 70 OFFCURVE",
"92 136 OFFCURVE",
"92 200 CURVE SMOOTH",
"92 285 OFFCURVE",
"111 355 OFFCURVE",
"140 418 CURVE",
"74 442 LINE",
"40 367 OFFCURVE",
"20 286 OFFCURVE",
"19 200 CURVE SMOOTH",
"19 91 OFFCURVE",
"65 -4 OFFCURVE",
"155 -4 CURVE",
"256 -4 OFFCURVE",
"307 85 OFFCURVE",
"330 145 CURVE",
"339 84 OFFCURVE",
"374 -4 OFFCURVE",
"460 -4 CURVE",
"610 -4 OFFCURVE",
"656 158 OFFCURVE",
"656 297 CURVE",
"656 340 OFFCURVE",
"649 396 OFFCURVE",
"633 441 CURVE SMOOTH",
"586 572 OFFCURVE",
"500 648 OFFCURVE",
"387 648 CURVE",
"278 648 OFFCURVE",
"222 590 OFFCURVE",
"222 503 CURVE",
"222 431 OFFCURVE",
"266 376 OFFCURVE",
"341 346 CURVE SMOOTH",
"405 321 OFFCURVE",
"492 310 OFFCURVE",
"595 318 CURVE",
"626 390 LINE",
"458 371 OFFCURVE",
"294 398 OFFCURVE",
"294 505 CURVE",
"294 556 OFFCURVE",
"329 578 OFFCURVE",
"381 578 CURVE",
"500 578 OFFCURVE",
"586 447 OFFCURVE",
"586 297 CURVE"
);
}
);
width = 677;
}
);
rightKerningGroup = at;
unicode = 1C77;
},
{
glyphname = "mu_ttuddag-olchiki";
lastChange = "2015-01-12 07:57:04 +0000";
layers = (
{
layerId = "A591124E-510C-4EE7-8335-8E9FAE8FCE08";
name = "Regular Italic";
paths = (
{
closed = 1;
nodes = (
"10 543 OFFCURVE",
"33 521 OFFCURVE",
"65 521 CURVE SMOOTH",
"97 521 OFFCURVE",
"120 543 OFFCURVE",
"120 579 CURVE SMOOTH",
"120 617 OFFCURVE",
"97 637 OFFCURVE",
"65 637 CURVE SMOOTH",
"33 637 OFFCURVE",
"10 617 OFFCURVE",
"10 579 CURVE SMOOTH"
);
}
);
width = 130;
}
);
leftKerningGroup = mu_ttuddag;
unicode = 1C78;
},
{
glyphname = "gaahlaa_ttuddag-olchiki";
lastChange = "2015-01-12 06:04:07 +0000";
layers = (
{
background = {
paths = (
{
closed = 1;
nodes = (
"8 30 OFFCURVE",
"33 8 OFFCURVE",
"65 8 CURVE SMOOTH",
"97 8 OFFCURVE",
"122 30 OFFCURVE",
"122 71 CURVE SMOOTH",
"122 113 OFFCURVE",
"97 134 OFFCURVE",
"65 134 CURVE SMOOTH",
"33 134 OFFCURVE",
"8 113 OFFCURVE",
"8 71 CURVE SMOOTH"
);
}
);
};
layerId = "A591124E-510C-4EE7-8335-8E9FAE8FCE08";
name = "Regular Italic";
paths = (
{
closed = 1;
nodes = (
"10 30 OFFCURVE",
"33 8 OFFCURVE",
"65 8 CURVE SMOOTH",
"97 8 OFFCURVE",
"120 30 OFFCURVE",
"120 66 CURVE SMOOTH",
"120 104 OFFCURVE",
"97 124 OFFCURVE",
"65 124 CURVE SMOOTH",
"33 124 OFFCURVE",
"10 104 OFFCURVE",
"10 66 CURVE SMOOTH"
);
}
);
width = 130;
}
);
leftKerningGroup = mu_ttuddag;
unicode = 1C79;
},
{
glyphname = "mu_gaahlaa_ttuddag-olchiki";
lastChange = "2015-01-12 06:04:07 +0000";
layers = (
{
background = {
paths = (
{
closed = 1;
nodes = (
"8 30 OFFCURVE",
"33 8 OFFCURVE",
"65 8 CURVE SMOOTH",
"97 8 OFFCURVE",
"122 30 OFFCURVE",
"122 71 CURVE SMOOTH",
"122 113 OFFCURVE",
"97 134 OFFCURVE",
"65 134 CURVE SMOOTH",
"33 134 OFFCURVE",
"8 113 OFFCURVE",
"8 71 CURVE SMOOTH"
);
},
{
closed = 1;
nodes = (
"8 533 OFFCURVE",
"33 511 OFFCURVE",
"65 511 CURVE SMOOTH",
"97 511 OFFCURVE",
"122 533 OFFCURVE",
"122 574 CURVE SMOOTH",
"122 616 OFFCURVE",
"97 637 OFFCURVE",
"65 637 CURVE SMOOTH",
"33 637 OFFCURVE",
"8 616 OFFCURVE",
"8 574 CURVE SMOOTH"
);
}
);
};
layerId = "A591124E-510C-4EE7-8335-8E9FAE8FCE08";
name = "Regular Italic";
paths = (
{
closed = 1;
nodes = (
"10 30 OFFCURVE",
"33 8 OFFCURVE",
"65 8 CURVE SMOOTH",
"97 8 OFFCURVE",
"120 30 OFFCURVE",
"120 66 CURVE SMOOTH",
"120 104 OFFCURVE",
"97 124 OFFCURVE",
"65 124 CURVE SMOOTH",
"33 124 OFFCURVE",
"10 104 OFFCURVE",
"10 66 CURVE SMOOTH"
);
},
{
closed = 1;
nodes = (
"10 543 OFFCURVE",
"33 521 OFFCURVE",
"65 521 CURVE SMOOTH",
"97 521 OFFCURVE",
"120 543 OFFCURVE",
"120 579 CURVE SMOOTH",
"120 617 OFFCURVE",
"97 637 OFFCURVE",
"65 637 CURVE SMOOTH",
"33 637 OFFCURVE",
"10 617 OFFCURVE",
"10 579 CURVE SMOOTH"
);
}
);
width = 130;
}
);
leftKerningGroup = mu_ttuddag;
unicode = 1C7A;
},
{
glyphname = "relaa-olchiki";
lastChange = "2015-01-06 12:11:10 +0000";
layers = (
{
layerId = "A591124E-510C-4EE7-8335-8E9FAE8FCE08";
name = "Regular Italic";
paths = (
{
closed = 1;
nodes = (
"40 381 LINE",
"312 381 LINE",
"312 453 LINE",
"40 453 LINE"
);
}
);
width = 352;
}
);
unicode = 1C7C;
},
{
glyphname = "phaarkaa-olchiki";
lastChange = "2015-01-06 12:27:44 +0000";
layers = (
{
background = {
paths = (
{
closed = 1;
nodes = (
"48 381 LINE",
"520 381 LINE",
"520 453 LINE",
"48 453 LINE"
);
}
);
};
layerId = "A591124E-510C-4EE7-8335-8E9FAE8FCE08";
name = "Regular Italic";
paths = (
{
closed = 1;
nodes = (
"232 404 OFFCURVE",
"286 343 OFFCURVE",
"368 343 CURVE",
"429 343 OFFCURVE",
"472 377 OFFCURVE",
"500 400 CURVE",
"464 457 LINE",
"439 436 OFFCURVE",
"409 412 OFFCURVE",
"370 412 CURVE",
"307 412 OFFCURVE",
"245 473 OFFCURVE",
"162 473 CURVE",
"101 473 OFFCURVE",
"58 439 OFFCURVE",
"30 416 CURVE",
"66 359 LINE",
"91 381 OFFCURVE",
"121 404 OFFCURVE",
"160 404 CURVE"
);
}
);
width = 530;
}
);
unicode = 1C7B;
},
{
glyphname = question;
lastChange = "2015-11-23 08:07:04 +0000";
layers = (
{
background = {
paths = (
{
closed = 1;
nodes = (
"232 198 LINE",
"216 338 OFFCURVE",
"377 391 OFFCURVE",
"377 522 CURVE SMOOTH",
"377 621 OFFCURVE",
"309 682 OFFCURVE",
"206 682 CURVE SMOOTH",
"135 682 OFFCURVE",
"80 647 OFFCURVE",
"38 599 CURVE",
"85 556 LINE",
"116 592 OFFCURVE",
"156 614 OFFCURVE",
"200 614 CURVE SMOOTH",
"264 614 OFFCURVE",
"297 570 OFFCURVE",
"297 517 CURVE SMOOTH",
"297 411 OFFCURVE",
"138 354 OFFCURVE",
"160 198 CURVE"
);
},
{
closed = 1;
nodes = (
"139 14 OFFCURVE",
"165 -12 OFFCURVE",
"198 -12 CURVE SMOOTH",
"231 -12 OFFCURVE",
"258 14 OFFCURVE",
"258 50 CURVE SMOOTH",
"258 88 OFFCURVE",
"231 114 OFFCURVE",
"198 114 CURVE SMOOTH",
"165 114 OFFCURVE",
"139 88 OFFCURVE",
"139 50 CURVE SMOOTH"
);
}
);
};
layerId = "A591124E-510C-4EE7-8335-8E9FAE8FCE08";
name = "Regular Italic";
width = 425;
}
);
unicode = 003F;
},
{
glyphname = "mucaad-olchiki";
lastChange = "2015-01-19 06:03:56 +0000";
layers = (
{
layerId = "A591124E-510C-4EE7-8335-8E9FAE8FCE08";
name = "Regular Italic";
paths = (
{
closed = 1;
nodes = (
"222 120 LINE",
"222 480 LINE",
"150 480 LINE",
"150 120 LINE"
);
}
);
width = 342;
}
);
unicode = 1C7E;
},
{
glyphname = "double_mucaad-olchiki";
lastChange = "2015-01-19 06:05:07 +0000";
layers = (
{
layerId = "A591124E-510C-4EE7-8335-8E9FAE8FCE08";
name = "Regular Italic";
paths = (
{
closed = 1;
nodes = (
"222 120 LINE",
"222 480 LINE",
"150 480 LINE",
"150 120 LINE"
);
},
{
closed = 1;
nodes = (
"382 120 LINE",
"382 480 LINE",
"310 480 LINE",
"310 120 LINE"
);
}
);
width = 502;
}
);
unicode = 1C7F;
},
{
glyphname = "one-olchiki";
lastChange = "2015-11-23 08:06:22 +0000";
layers = (
{
background = {
paths = (
{
closed = 1;
nodes = (
"326 340 LINE",
"398 340 LINE",
"398 636 LINE",
"326 636 LINE"
);
},
{
closed = 1;
nodes = (
"68 643 LINE",
"50 554 LINE",
"354 315 LINE",
"389 382 LINE"
);
},
{
closed = 1;
nodes = (
"-14 403 OFFCURVE",
"70 53 OFFCURVE",
"370 0 CURVE",
"391 78 LINE",
"159 113 OFFCURVE",
"96 349 OFFCURVE",
"122 568 CURVE",
"65 633 LINE"
);
}
);
};
layerId = "A591124E-510C-4EE7-8335-8E9FAE8FCE08";
name = "Regular Italic";
width = 428;
}
);
unicode = 1C51;
},
{
glyphname = "two-olchiki";
lastChange = "2015-11-23 08:06:24 +0000";
layers = (
{
background = {
paths = (
{
closed = 1;
nodes = (
"15 59 OFFCURVE",
"90 -15 OFFCURVE",
"211 -15 CURVE",
"300 -15 OFFCURVE",
"380 26 OFFCURVE",
"438 92 CURVE",
"384 144 LINE",
"346 104 OFFCURVE",
"287 60 OFFCURVE",
"212 60 CURVE",
"140 60 OFFCURVE",
"93 96 OFFCURVE",
"93 162 CURVE",
"93 226 OFFCURVE",
"162 263 OFFCURVE",
"225 303 CURVE SMOOTH",
"310 357 OFFCURVE",
"397 406 OFFCURVE",
"397 505 CURVE",
"397 599 OFFCURVE",
"320 650 OFFCURVE",
"250 650 CURVE",
"171 650 OFFCURVE",
"121 611 OFFCURVE",
"74 561 CURVE",
"129 505 LINE",
"156 539 OFFCURVE",
"192 576 OFFCURVE",
"248 576 CURVE",
"280 576 OFFCURVE",
"319 558 OFFCURVE",
"319 505 CURVE",
"319 440 OFFCURVE",
"245 402 OFFCURVE",
"170 355 CURVE SMOOTH",
"94 308 OFFCURVE",
"15 254 OFFCURVE",
"15 163 CURVE"
);
},
{
closed = 1;
nodes = (
"41 645 LINE",
"-12 600 LINE",
"154 426 LINE",
"208 472 LINE"
);
}
);
};
layerId = "A591124E-510C-4EE7-8335-8E9FAE8FCE08";
name = "Regular Italic";
width = 458;
}
);
unicode = 1C52;
},
{
glyphname = "five-olchiki";
lastChange = "2015-11-23 08:06:27 +0000";
layers = (
{
background = {
paths = (
{
closed = 1;
nodes = (
"56 554 OFFCURVE",
"25 457 OFFCURVE",
"25 329 CURVE SMOOTH",
"25 124 OFFCURVE",
"120 -15 OFFCURVE",
"298 -15 CURVE SMOOTH",
"455 -15 OFFCURVE",
"558 101 OFFCURVE",
"565 297 CURVE",
"549 312 LINE",
"507 302 OFFCURVE",
"478 287 OFFCURVE",
"419 287 CURVE SMOOTH",
"337 287 OFFCURVE",
"301 359 OFFCURVE",
"301 418 CURVE SMOOTH",
"301 524 OFFCURVE",
"334 568 OFFCURVE",
"396 568 CURVE SMOOTH",
"444 568 OFFCURVE",
"474 536 OFFCURVE",
"500 481 CURVE",
"564 514 LINE",
"532 602 OFFCURVE",
"461 642 OFFCURVE",
"399 642 CURVE SMOOTH",
"270 642 OFFCURVE",
"227 537 OFFCURVE",
"227 417 CURVE SMOOTH",
"227 318 OFFCURVE",
"291 214 OFFCURVE",
"417 214 CURVE SMOOTH",
"439 214 OFFCURVE",
"463 217 OFFCURVE",
"483 221 CURVE",
"463 122 OFFCURVE",
"399 59 OFFCURVE",
"300 59 CURVE",
"161 54 OFFCURVE",
"99 182 OFFCURVE",
"99 323 CURVE SMOOTH",
"99 452 OFFCURVE",
"136 546 OFFCURVE",
"174 606 CURVE",
"104 640 LINE"
);
}
);
};
layerId = "A591124E-510C-4EE7-8335-8E9FAE8FCE08";
name = "Regular Italic";
width = 555;
}
);
unicode = 1C55;
},
{
glyphname = "four-olchiki";
lastChange = "2015-11-23 08:06:37 +0000";
layers = (
{
background = {
paths = (
{
closed = 1;
nodes = (
"78 188 OFFCURVE",
"141 54 OFFCURVE",
"280 59 CURVE",
"379 59 OFFCURVE",
"443 122 OFFCURVE",
"463 221 CURVE",
"266 170 LINE",
"44 338 LINE",
"81 426 LINE",
"272 253 LINE",
"529 313 LINE",
"545 297 LINE",
"538 101 OFFCURVE",
"435 -15 OFFCURVE",
"278 -15 CURVE SMOOTH",
"100 -15 OFFCURVE",
"5 124 OFFCURVE",
"5 329 CURVE",
"5 516 OFFCURVE",
"107 611 OFFCURVE",
"240 648 CURVE",
"266 580 LINE",
"155 551 OFFCURVE",
"78 480 OFFCURVE",
"78 329 CURVE"
);
}
);
};
layerId = "A591124E-510C-4EE7-8335-8E9FAE8FCE08";
name = "Regular Italic";
width = 463;
}
);
unicode = 1C54;
},
{
glyphname = "la-olchiki.alt";
lastChange = "2015-01-19 07:16:11 +0000";
layers = (
{
background = {
paths = (
{
closed = 1;
nodes = (
"77 89 LINE",
"535 426 LINE",
"487 476 LINE",
"27 141 LINE"
);
},
{
closed = 1;
nodes = (
"258 650 OFFCURVE",
"183 608 OFFCURVE",
"125 551 CURVE",
"173 407 LINE",
"46 407 LINE",
"37 338 LINE",
"227 338 LINE",
"258 395 LINE",
"213 528 LINE",
"249 555 OFFCURVE",
"286 576 OFFCURVE",
"331 576 CURVE SMOOTH",
"423 576 OFFCURVE",
"489 507 OFFCURVE",
"489 369 CURVE SMOOTH",
"489 245 OFFCURVE",
"422 59 OFFCURVE",
"248 59 CURVE SMOOTH",
"162 59 OFFCURVE",
"112 100 OFFCURVE",
"96 191 CURVE",
"27 141 LINE",
"68 35 OFFCURVE",
"145 -15 OFFCURVE",
"241 -15 CURVE SMOOTH",
"467 -15 OFFCURVE",
"564 196 OFFCURVE",
"564 370 CURVE SMOOTH",
"564 550 OFFCURVE",
"464 650 OFFCURVE",
"338 650 CURVE SMOOTH"
);
}
